<svg width="30" height="30" viewBox="0 0 30 30" fill="none" xmlns="http://www.w3.org/2000/svg">
<path d="M15.0044 28.3869C14.6456 28.3869 14.29 28.2931 13.9756 28.1119L10.7006 26.1725C10.2113 25.8987 10.45 25.8019 10.6113 25.7462C11.2638 25.5181 11.3956 25.4662 12.0919 25.0706C12.165 25.0287 12.2606 25.0437 12.3356 25.0881L14.8519 26.5812C14.9425 26.6306 15.0719 26.6306 15.1556 26.5812L24.9662 20.9181C25.0569 20.8662 25.1163 20.7612 25.1163 20.6531V9.33248C25.1163 9.21936 25.0575 9.11873 24.9644 9.06248L15.1581 3.40373C15.0675 3.34998 14.9469 3.34998 14.8563 3.40373L5.05125 9.06186C4.95625 9.11561 4.89563 9.22123 4.89563 9.32936V20.6506C4.89563 20.7587 4.95437 20.8619 5.04812 20.9131L7.735 22.465C9.19375 23.1944 10.085 22.335 10.085 21.4706V10.2975C10.085 10.1381 10.21 10.015 10.37 10.015H11.6125C11.7675 10.015 11.895 10.1375 11.895 10.2975V21.4762C11.895 23.4212 10.8344 24.5387 8.99 24.5387C8.4225 24.5387 7.97563 24.5387 6.72813 23.925L4.15437 22.4419C3.51812 22.0731 3.125 21.385 3.125 20.6512V9.32998C3.125 8.59311 3.51812 7.90561 4.15375 7.54186L13.975 1.87623C14.5963 1.52498 15.4212 1.52498 16.0381 1.87623L25.8469 7.54436C26.4794 7.90998 26.875 8.59561 26.875 9.33248V20.6537C26.875 21.3881 26.4794 22.0731 25.8463 22.4419L16.0375 28.1069C15.7231 28.2887 15.3669 28.3819 15.0038 28.3819" fill="#21A366"/>
<path d="M18.035 20.5857C13.7425 20.5857 12.8425 18.6151 12.8425 16.9626C12.8425 16.8057 12.9694 16.6801 13.1269 16.6801H14.3944C14.5344 16.6801 14.6525 16.782 14.6744 16.9201C14.8656 18.2113 15.4356 18.8626 18.0312 18.8626C20.0987 18.8626 20.9781 18.3957 20.9781 17.2988C20.9781 16.6676 20.7275 16.1988 17.5156 15.8845C14.8287 15.6195 13.1687 15.0276 13.1687 12.8788C13.1687 10.8995 14.8387 9.7207 17.6356 9.7207C20.7769 9.7207 22.3337 10.8113 22.53 13.1538C22.5375 13.2351 22.5081 13.3132 22.4537 13.3726C22.4 13.4288 22.3237 13.4632 22.245 13.4632H20.9706C20.8381 13.4632 20.7225 13.3701 20.6956 13.242C20.3887 11.8838 19.6469 11.4495 17.6306 11.4495C15.3737 11.4495 15.1112 12.2351 15.1112 12.8245C15.1112 13.5388 15.4206 13.7476 18.4656 14.1507C21.4812 14.5507 22.9131 15.1157 22.9131 17.2351C22.9131 19.3713 21.13 20.597 18.0212 20.597" fill="#21A366"/>
</svg>
