<svg width="514" height="401" viewBox="0 0 514 401" fill="none" xmlns="http://www.w3.org/2000/svg">
<g clip-path="url(#clip0_6_124)">
<path d="M299.404 70.6916C309.037 70.6916 316.847 62.3148 316.847 51.9815C316.847 41.6482 309.037 33.2714 299.404 33.2714C289.771 33.2714 281.962 41.6482 281.962 51.9815C281.962 62.3148 289.771 70.6916 299.404 70.6916Z" fill="#F2F2F2"/>
<path d="M434.712 348.371C460.638 327.188 473.022 291.594 465.269 257.638C465.077 256.795 464.873 255.953 464.659 255.113C459.52 234.958 446.805 215.801 428.273 209.361C412.712 203.954 395.727 208.112 379.494 205.962C347.627 201.74 322.921 174.082 305.537 145.124C288.153 116.166 274.794 83.7519 251.694 59.8283C213.619 20.3943 151.509 11.9041 104.301 37.5727C57.093 63.2414 27.0221 120.189 28.3045 176.945C29.587 233.701 60.9979 287.964 106.614 316.753C123.372 327.33 142.754 334.822 162.043 332.2C178.779 329.925 193.986 320.279 210.644 317.415C236.834 312.912 262.858 325.614 285.51 340.416C308.162 355.217 330.043 372.761 355.784 379.623C380.779 386.286 411.745 367.135 434.712 348.371Z" fill="#F2F2F2"/>
<path d="M397.462 38.7645C396.894 38.3581 396.319 37.9727 395.75 37.5803C379.321 26.3095 361.712 17.1533 343.287 10.3007L339.014 73.5209H311.93V1.07208C310.225 0.693689 308.507 0.336316 306.789 -3.62396e-05V73.5209H274.603C256.884 73.5209 239.891 65.9706 227.362 52.531C214.832 39.0914 207.794 20.8634 207.794 1.85699C206.069 2.25641 204.357 2.68379 202.646 3.13927V73.5209H176.431L172.361 13.2368C153.426 21.0264 135.449 31.27 118.832 43.7397C118.545 43.95 118.257 44.1672 117.977 44.3774C116.533 45.4635 115.109 46.5707 113.691 47.6919V288.877H190.953L189.587 268.591L182.075 157.209H333.364L325.851 268.591L324.486 288.877H400.892V41.2031C399.755 40.3762 398.612 39.5634 397.462 38.7645ZM202.646 138.815H180.834L176.803 79.0427H202.646V138.815ZM306.789 138.815H270.154V137.631C270.154 137.062 270.049 136.498 269.846 135.972C269.643 135.446 269.345 134.969 268.969 134.566C268.594 134.164 268.148 133.845 267.657 133.628C267.167 133.411 266.641 133.299 266.11 133.3H250.184C249.654 133.3 249.129 133.412 248.639 133.63C248.149 133.847 247.704 134.166 247.329 134.568C246.954 134.97 246.656 135.448 246.454 135.973C246.251 136.499 246.146 137.062 246.147 137.631V138.815H207.794V79.0427H306.789V138.815ZM311.93 138.815V79.0427H338.642L334.612 138.815H311.93Z" fill="#020202"/>
<path d="M-3.05176e-05 304.322C5.67503 311.535 11.8132 318.314 18.3697 324.608L495.63 325.309C502.187 319.014 508.325 312.236 514 305.023L-3.05176e-05 304.322Z" fill="#020202"/>
<path d="M323.646 239.364V299.42C323.646 300.185 323.93 300.919 324.435 301.46C324.939 302.001 325.623 302.306 326.337 302.306H409.304C410.017 302.306 410.701 302.001 411.206 301.46C411.711 300.919 411.994 300.185 411.995 299.42V239.364C411.993 238.6 411.709 237.867 411.205 237.327C410.7 236.786 410.017 236.482 409.304 236.481H326.337C325.624 236.482 324.94 236.786 324.436 237.327C323.932 237.867 323.648 238.6 323.646 239.364Z" fill="#020202"/>
<path d="M325.592 240.112V298.679C325.593 299.088 325.745 299.48 326.014 299.769C326.284 300.058 326.649 300.221 327.03 300.222H408.613C408.994 300.221 409.36 300.058 409.629 299.769C409.899 299.48 410.051 299.088 410.051 298.679V240.112C410.051 239.702 409.9 239.31 409.63 239.02C409.361 238.73 408.995 238.567 408.613 238.566H327.03C326.649 238.567 326.283 238.73 326.013 239.02C325.744 239.31 325.592 239.702 325.592 240.112Z" fill="#022840"/>
<path d="M321.911 311.132C322.063 311.337 322.256 311.502 322.476 311.615C322.696 311.727 322.936 311.785 323.18 311.784H412.019C412.262 311.784 412.501 311.725 412.721 311.613C412.94 311.501 413.133 311.338 413.286 311.135C413.439 310.933 413.548 310.696 413.605 310.443C413.663 310.19 413.666 309.926 413.617 309.671L412.238 302.644C412.18 302.358 412.057 302.091 411.88 301.869C411.702 301.646 411.475 301.475 411.22 301.371C411.035 301.293 410.838 301.253 410.64 301.253H324.554C324.355 301.253 324.158 301.293 323.974 301.371C323.718 301.475 323.492 301.646 323.314 301.869C323.136 302.091 323.013 302.358 322.956 302.644L321.577 309.671C321.528 309.926 321.532 310.189 321.59 310.442C321.648 310.695 321.757 310.931 321.911 311.132Z" fill="#2F2E41"/>
<path d="M407.591 304.28H409.69C409.866 304.28 410.009 304.126 410.009 303.938V302.861C410.009 302.672 409.866 302.519 409.69 302.519H407.591C407.415 302.519 407.272 302.672 407.272 302.861V303.938C407.272 304.126 407.415 304.28 407.591 304.28Z" fill="#020202"/>
<path d="M402.119 304.28H404.217C404.393 304.28 404.536 304.126 404.536 303.938V302.861C404.536 302.672 404.393 302.519 404.217 302.519H402.119C401.943 302.519 401.8 302.672 401.8 302.861V303.938C401.8 304.126 401.943 304.28 402.119 304.28Z" fill="#020202"/>
<path d="M396.647 304.28H398.745C398.921 304.28 399.064 304.126 399.064 303.938V302.861C399.064 302.672 398.921 302.519 398.745 302.519H396.647C396.471 302.519 396.328 302.672 396.328 302.861V303.938C396.328 304.126 396.471 304.28 396.647 304.28Z" fill="#020202"/>
<path d="M391.174 304.28H393.273C393.449 304.28 393.592 304.126 393.592 303.938V302.861C393.592 302.672 393.449 302.519 393.273 302.519H391.174C390.998 302.519 390.855 302.672 390.855 302.861V303.938C390.855 304.126 390.998 304.28 391.174 304.28Z" fill="#020202"/>
<path d="M385.702 304.28H387.8C387.976 304.28 388.119 304.126 388.119 303.938V302.861C388.119 302.672 387.976 302.519 387.8 302.519H385.702C385.526 302.519 385.383 302.672 385.383 302.861V303.938C385.383 304.126 385.526 304.28 385.702 304.28Z" fill="#020202"/>
<path d="M380.23 304.28H382.328C382.504 304.28 382.647 304.126 382.647 303.938V302.861C382.647 302.672 382.504 302.519 382.328 302.519H380.23C380.053 302.519 379.911 302.672 379.911 302.861V303.938C379.911 304.126 380.053 304.28 380.23 304.28Z" fill="#020202"/>
<path d="M374.757 304.28H376.856C377.032 304.28 377.174 304.126 377.174 303.938V302.861C377.174 302.672 377.032 302.519 376.856 302.519H374.757C374.581 302.519 374.438 302.672 374.438 302.861V303.938C374.438 304.126 374.581 304.28 374.757 304.28Z" fill="#020202"/>
<path d="M369.285 304.28H371.383C371.559 304.28 371.702 304.126 371.702 303.938V302.861C371.702 302.672 371.559 302.519 371.383 302.519H369.285C369.109 302.519 368.966 302.672 368.966 302.861V303.938C368.966 304.126 369.109 304.28 369.285 304.28Z" fill="#020202"/>
<path d="M363.812 304.28H365.911C366.087 304.28 366.23 304.126 366.23 303.938V302.861C366.23 302.672 366.087 302.519 365.911 302.519H363.812C363.636 302.519 363.494 302.672 363.494 302.861V303.938C363.494 304.126 363.636 304.28 363.812 304.28Z" fill="#020202"/>
<path d="M358.34 304.28H360.438C360.615 304.28 360.757 304.126 360.757 303.938V302.861C360.757 302.672 360.615 302.519 360.438 302.519H358.34C358.164 302.519 358.021 302.672 358.021 302.861V303.938C358.021 304.126 358.164 304.28 358.34 304.28Z" fill="#020202"/>
<path d="M352.868 304.28H354.966C355.142 304.28 355.285 304.126 355.285 303.938V302.861C355.285 302.672 355.142 302.519 354.966 302.519H352.868C352.692 302.519 352.549 302.672 352.549 302.861V303.938C352.549 304.126 352.692 304.28 352.868 304.28Z" fill="#020202"/>
<path d="M347.395 304.28H349.494C349.67 304.28 349.813 304.126 349.813 303.938V302.861C349.813 302.672 349.67 302.519 349.494 302.519H347.395C347.219 302.519 347.076 302.672 347.076 302.861V303.938C347.076 304.126 347.219 304.28 347.395 304.28Z" fill="#020202"/>
<path d="M341.923 304.28H344.021C344.197 304.28 344.34 304.126 344.34 303.938V302.861C344.34 302.672 344.197 302.519 344.021 302.519H341.923C341.747 302.519 341.604 302.672 341.604 302.861V303.938C341.604 304.126 341.747 304.28 341.923 304.28Z" fill="#020202"/>
<path d="M336.451 304.28H338.549C338.725 304.28 338.868 304.126 338.868 303.938V302.861C338.868 302.672 338.725 302.519 338.549 302.519H336.451C336.274 302.519 336.132 302.672 336.132 302.861V303.938C336.132 304.126 336.274 304.28 336.451 304.28Z" fill="#020202"/>
<path d="M330.978 304.28H333.077C333.253 304.28 333.396 304.126 333.396 303.938V302.861C333.396 302.672 333.253 302.519 333.077 302.519H330.978C330.802 302.519 330.659 302.672 330.659 302.861V303.938C330.659 304.126 330.802 304.28 330.978 304.28Z" fill="#020202"/>
<path d="M325.506 304.28H327.604C327.78 304.28 327.923 304.126 327.923 303.938V302.861C327.923 302.672 327.78 302.519 327.604 302.519H325.506C325.33 302.519 325.187 302.672 325.187 302.861V303.938C325.187 304.126 325.33 304.28 325.506 304.28Z" fill="#020202"/>
<path d="M407.656 307.215H409.754C409.931 307.215 410.073 307.061 410.073 306.873V305.796C410.073 305.607 409.931 305.454 409.754 305.454H407.656C407.48 305.454 407.337 305.607 407.337 305.796V306.873C407.337 307.061 407.48 307.215 407.656 307.215Z" fill="#020202"/>
<path d="M402.184 307.215H404.282C404.458 307.215 404.601 307.061 404.601 306.873V305.796C404.601 305.607 404.458 305.454 404.282 305.454H402.184C402.007 305.454 401.865 305.607 401.865 305.796V306.873C401.865 307.061 402.007 307.215 402.184 307.215Z" fill="#020202"/>
<path d="M396.711 307.215H398.81C398.986 307.215 399.129 307.061 399.129 306.873V305.796C399.129 305.607 398.986 305.454 398.81 305.454H396.711C396.535 305.454 396.392 305.607 396.392 305.796V306.873C396.392 307.061 396.535 307.215 396.711 307.215Z" fill="#020202"/>
<path d="M391.239 307.215H393.337C393.513 307.215 393.656 307.061 393.656 306.873V305.796C393.656 305.607 393.513 305.454 393.337 305.454H391.239C391.063 305.454 390.92 305.607 390.92 305.796V306.873C390.92 307.061 391.063 307.215 391.239 307.215Z" fill="#020202"/>
<path d="M385.767 307.215H387.865C388.041 307.215 388.184 307.061 388.184 306.873V305.796C388.184 305.607 388.041 305.454 387.865 305.454H385.767C385.59 305.454 385.448 305.607 385.448 305.796V306.873C385.448 307.061 385.59 307.215 385.767 307.215Z" fill="#020202"/>
<path d="M380.294 307.215H382.393C382.569 307.215 382.711 307.061 382.711 306.873V305.796C382.711 305.607 382.569 305.454 382.393 305.454H380.294C380.118 305.454 379.975 305.607 379.975 305.796V306.873C379.975 307.061 380.118 307.215 380.294 307.215Z" fill="#020202"/>
<path d="M374.822 307.215H376.92C377.096 307.215 377.239 307.061 377.239 306.873V305.796C377.239 305.607 377.096 305.454 376.92 305.454H374.822C374.646 305.454 374.503 305.607 374.503 305.796V306.873C374.503 307.061 374.646 307.215 374.822 307.215Z" fill="#020202"/>
<path d="M369.349 307.215H371.448C371.624 307.215 371.767 307.061 371.767 306.873V305.796C371.767 305.607 371.624 305.454 371.448 305.454H369.349C369.173 305.454 369.031 305.607 369.031 305.796V306.873C369.031 307.061 369.173 307.215 369.349 307.215Z" fill="#020202"/>
<path d="M363.877 307.215H365.975C366.152 307.215 366.294 307.061 366.294 306.873V305.796C366.294 305.607 366.152 305.454 365.975 305.454H363.877C363.701 305.454 363.558 305.607 363.558 305.796V306.873C363.558 307.061 363.701 307.215 363.877 307.215Z" fill="#020202"/>
<path d="M358.405 307.215H360.503C360.679 307.215 360.822 307.061 360.822 306.873V305.796C360.822 305.607 360.679 305.454 360.503 305.454H358.405C358.229 305.454 358.086 305.607 358.086 305.796V306.873C358.086 307.061 358.229 307.215 358.405 307.215Z" fill="#020202"/>
<path d="M352.932 307.215H355.031C355.207 307.215 355.35 307.061 355.35 306.873V305.796C355.35 305.607 355.207 305.454 355.031 305.454H352.932C352.756 305.454 352.613 305.607 352.613 305.796V306.873C352.613 307.061 352.756 307.215 352.932 307.215Z" fill="#020202"/>
<path d="M347.46 307.215H349.558C349.734 307.215 349.877 307.061 349.877 306.873V305.796C349.877 305.607 349.734 305.454 349.558 305.454H347.46C347.284 305.454 347.141 305.607 347.141 305.796V306.873C347.141 307.061 347.284 307.215 347.46 307.215Z" fill="#020202"/>
<path d="M341.988 307.215H344.086C344.262 307.215 344.405 307.061 344.405 306.873V305.796C344.405 305.607 344.262 305.454 344.086 305.454H341.988C341.812 305.454 341.669 305.607 341.669 305.796V306.873C341.669 307.061 341.812 307.215 341.988 307.215Z" fill="#020202"/>
<path d="M336.515 307.215H338.614C338.79 307.215 338.933 307.061 338.933 306.873V305.796C338.933 305.607 338.79 305.454 338.614 305.454H336.515C336.339 305.454 336.196 305.607 336.196 305.796V306.873C336.196 307.061 336.339 307.215 336.515 307.215Z" fill="#020202"/>
<path d="M331.043 307.215H333.141C333.317 307.215 333.46 307.061 333.46 306.873V305.796C333.46 305.607 333.317 305.454 333.141 305.454H331.043C330.867 305.454 330.724 305.607 330.724 305.796V306.873C330.724 307.061 330.867 307.215 331.043 307.215Z" fill="#020202"/>
<path d="M325.571 307.215H327.669C327.845 307.215 327.988 307.061 327.988 306.873V305.796C327.988 305.607 327.845 305.454 327.669 305.454H325.571C325.394 305.454 325.252 305.607 325.252 305.796V306.873C325.252 307.061 325.394 307.215 325.571 307.215Z" fill="#020202"/>
<path d="M362.235 310.737H383.487C383.663 310.737 383.806 310.584 383.806 310.395V309.318C383.806 309.129 383.663 308.976 383.487 308.976H362.235C362.059 308.976 361.916 309.129 361.916 309.318V310.395C361.916 310.584 362.059 310.737 362.235 310.737Z" fill="#020202"/>
<path d="M339.72 251.379H337.862C337.299 251.379 336.842 251.869 336.842 252.473C336.842 253.077 337.299 253.567 337.862 253.567H339.72C340.283 253.567 340.74 253.077 340.74 252.473C340.74 251.869 340.283 251.379 339.72 251.379Z" fill="white"/>
<path d="M360.966 251.379H359.108C358.545 251.379 358.089 251.869 358.089 252.473C358.089 253.077 358.545 253.567 359.108 253.567H360.966C361.529 253.567 361.986 253.077 361.986 252.473C361.986 251.869 361.529 251.379 360.966 251.379Z" fill="white"/>
<path d="M366.986 251.379H365.128C364.565 251.379 364.108 251.869 364.108 252.473C364.108 253.077 364.565 253.567 365.128 253.567H366.986C367.549 253.567 368.006 253.077 368.006 252.473C368.006 251.869 367.549 251.379 366.986 251.379Z" fill="white"/>
<path d="M355.187 251.197H343.641C343.078 251.197 342.621 251.686 342.621 252.29C342.621 252.895 343.078 253.384 343.641 253.384H355.187C355.75 253.384 356.207 252.895 356.207 252.29C356.207 251.686 355.75 251.197 355.187 251.197Z" fill="white"/>
<path d="M383.515 251.197H371.969C371.406 251.197 370.95 251.686 370.95 252.29C370.95 252.895 371.406 253.384 371.969 253.384H383.515C384.078 253.384 384.535 252.895 384.535 252.29C384.535 251.686 384.078 251.197 383.515 251.197Z" fill="white"/>
<path d="M345.386 256.317H343.528C342.965 256.317 342.508 256.807 342.508 257.411C342.508 258.015 342.965 258.505 343.528 258.505H345.386C345.949 258.505 346.405 258.015 346.405 257.411C346.405 256.807 345.949 256.317 345.386 256.317Z" fill="white"/>
<path d="M366.632 256.317H364.774C364.211 256.317 363.754 256.807 363.754 257.411C363.754 258.015 364.211 258.505 364.774 258.505H366.632C367.195 258.505 367.651 258.015 367.651 257.411C367.651 256.807 367.195 256.317 366.632 256.317Z" fill="white"/>
<path d="M372.651 256.317H370.794C370.23 256.317 369.774 256.807 369.774 257.411C369.774 258.015 370.23 258.505 370.794 258.505H372.651C373.215 258.505 373.671 258.015 373.671 257.411C373.671 256.807 373.215 256.317 372.651 256.317Z" fill="white"/>
<path d="M360.853 256.134H349.307C348.744 256.134 348.287 256.624 348.287 257.228C348.287 257.832 348.744 258.322 349.307 258.322H360.853C361.416 258.322 361.872 257.832 361.872 257.228C361.872 256.624 361.416 256.134 360.853 256.134Z" fill="white"/>
<path d="M389.181 256.134H377.635C377.072 256.134 376.615 256.624 376.615 257.228C376.615 257.832 377.072 258.322 377.635 258.322H389.181C389.744 258.322 390.2 257.832 390.2 257.228C390.2 256.624 389.744 256.134 389.181 256.134Z" fill="white"/>
<path d="M351.051 261.255H349.193C348.63 261.255 348.174 261.744 348.174 262.348C348.174 262.953 348.63 263.442 349.193 263.442H351.051C351.614 263.442 352.071 262.953 352.071 262.348C352.071 261.744 351.614 261.255 351.051 261.255Z" fill="white"/>
<path d="M372.297 261.255H370.44C369.876 261.255 369.42 261.744 369.42 262.348C369.42 262.953 369.876 263.442 370.44 263.442H372.297C372.86 263.442 373.317 262.953 373.317 262.348C373.317 261.744 372.86 261.255 372.297 261.255Z" fill="white"/>
<path d="M378.317 261.255H376.459C375.896 261.255 375.439 261.744 375.439 262.348C375.439 262.953 375.896 263.442 376.459 263.442H378.317C378.88 263.442 379.337 262.953 379.337 262.348C379.337 261.744 378.88 261.255 378.317 261.255Z" fill="white"/>
<path d="M366.518 261.072H354.972C354.409 261.072 353.953 261.562 353.953 262.166C353.953 262.77 354.409 263.26 354.972 263.26H366.518C367.081 263.26 367.538 262.77 367.538 262.166C367.538 261.562 367.081 261.072 366.518 261.072Z" fill="white"/>
<path d="M394.846 261.072H383.301C382.737 261.072 382.281 261.562 382.281 262.166C382.281 262.77 382.737 263.26 383.301 263.26H394.846C395.41 263.26 395.866 262.77 395.866 262.166C395.866 261.562 395.41 261.072 394.846 261.072Z" fill="white"/>
<path d="M356.717 266.192H354.859C354.296 266.192 353.839 266.682 353.839 267.286C353.839 267.89 354.296 268.38 354.859 268.38H356.717C357.28 268.38 357.737 267.89 357.737 267.286C357.737 266.682 357.28 266.192 356.717 266.192Z" fill="white"/>
<path d="M377.963 266.192H376.105C375.542 266.192 375.085 266.682 375.085 267.286C375.085 267.89 375.542 268.38 376.105 268.38H377.963C378.526 268.38 378.983 267.89 378.983 267.286C378.983 266.682 378.526 266.192 377.963 266.192Z" fill="white"/>
<path d="M383.983 266.192H382.125C381.562 266.192 381.105 266.682 381.105 267.286C381.105 267.89 381.562 268.38 382.125 268.38H383.983C384.546 268.38 385.002 267.89 385.002 267.286C385.002 266.682 384.546 266.192 383.983 266.192Z" fill="white"/>
<path d="M372.184 266.01H360.638C360.075 266.01 359.618 266.5 359.618 267.104C359.618 267.708 360.075 268.198 360.638 268.198H372.184C372.747 268.198 373.204 267.708 373.204 267.104C373.204 266.5 372.747 266.01 372.184 266.01Z" fill="white"/>
<path d="M360.966 285.827H359.108C358.545 285.827 358.089 286.317 358.089 286.921C358.089 287.525 358.545 288.015 359.108 288.015H360.966C361.529 288.015 361.986 287.525 361.986 286.921C361.986 286.317 361.529 285.827 360.966 285.827Z" fill="white"/>
<path d="M366.986 285.827H365.128C364.565 285.827 364.108 286.317 364.108 286.921C364.108 287.525 364.565 288.015 365.128 288.015H366.986C367.549 288.015 368.006 287.525 368.006 286.921C368.006 286.317 367.549 285.827 366.986 285.827Z" fill="white"/>
<path d="M383.515 286.01H371.969C371.406 286.01 370.95 286.499 370.95 287.104C370.95 287.708 371.406 288.198 371.969 288.198H383.515C384.078 288.198 384.535 287.708 384.535 287.104C384.535 286.499 384.078 286.01 383.515 286.01Z" fill="white"/>
<path d="M339.72 285.827H337.862C337.299 285.827 336.842 286.317 336.842 286.921C336.842 287.525 337.299 288.015 337.862 288.015H339.72C340.283 288.015 340.74 287.525 340.74 286.921C340.74 286.317 340.283 285.827 339.72 285.827Z" fill="white"/>
<path d="M355.187 286.01H343.641C343.078 286.01 342.621 286.499 342.621 287.104C342.621 287.708 343.078 288.198 343.641 288.198H355.187C355.75 288.198 356.207 287.708 356.207 287.104C356.207 286.499 355.75 286.01 355.187 286.01Z" fill="white"/>
<path d="M345.386 280.889H343.528C342.965 280.889 342.508 281.379 342.508 281.983C342.508 282.588 342.965 283.077 343.528 283.077H345.386C345.949 283.077 346.405 282.588 346.405 281.983C346.405 281.379 345.949 280.889 345.386 280.889Z" fill="white"/>
<path d="M366.632 280.889H364.774C364.211 280.889 363.754 281.379 363.754 281.983C363.754 282.588 364.211 283.077 364.774 283.077H366.632C367.195 283.077 367.651 282.588 367.651 281.983C367.651 281.379 367.195 280.889 366.632 280.889Z" fill="white"/>
<path d="M372.651 280.889H370.794C370.23 280.889 369.774 281.379 369.774 281.983C369.774 282.588 370.23 283.077 370.794 283.077H372.651C373.215 283.077 373.671 282.588 373.671 281.983C373.671 281.379 373.215 280.889 372.651 280.889Z" fill="white"/>
<path d="M360.853 281.072H349.307C348.744 281.072 348.287 281.562 348.287 282.166C348.287 282.77 348.744 283.26 349.307 283.26H360.853C361.416 283.26 361.872 282.77 361.872 282.166C361.872 281.562 361.416 281.072 360.853 281.072Z" fill="white"/>
<path d="M351.051 275.952H349.193C348.63 275.952 348.174 276.441 348.174 277.046C348.174 277.65 348.63 278.139 349.193 278.139H351.051C351.614 278.139 352.071 277.65 352.071 277.046C352.071 276.441 351.614 275.952 351.051 275.952Z" fill="white"/>
<path d="M372.297 275.952H370.44C369.876 275.952 369.42 276.441 369.42 277.046C369.42 277.65 369.876 278.139 370.44 278.139H372.297C372.86 278.139 373.317 277.65 373.317 277.046C373.317 276.441 372.86 275.952 372.297 275.952Z" fill="white"/>
<path d="M378.317 275.952H376.459C375.896 275.952 375.439 276.441 375.439 277.046C375.439 277.65 375.896 278.139 376.459 278.139H378.317C378.88 278.139 379.337 277.65 379.337 277.046C379.337 276.441 378.88 275.952 378.317 275.952Z" fill="white"/>
<path d="M366.518 276.134H354.972C354.409 276.134 353.953 276.624 353.953 277.228C353.953 277.832 354.409 278.322 354.972 278.322H366.518C367.081 278.322 367.538 277.832 367.538 277.228C367.538 276.624 367.081 276.134 366.518 276.134Z" fill="white"/>
<path d="M356.717 271.014H354.859C354.296 271.014 353.839 271.504 353.839 272.108C353.839 272.712 354.296 273.202 354.859 273.202H356.717C357.28 273.202 357.737 272.712 357.737 272.108C357.737 271.504 357.28 271.014 356.717 271.014Z" fill="white"/>
<path d="M377.963 271.014H376.105C375.542 271.014 375.085 271.504 375.085 272.108C375.085 272.712 375.542 273.202 376.105 273.202H377.963C378.526 273.202 378.983 272.712 378.983 272.108C378.983 271.504 378.526 271.014 377.963 271.014Z" fill="white"/>
<path d="M383.983 271.014H382.125C381.562 271.014 381.105 271.504 381.105 272.108C381.105 272.712 381.562 273.202 382.125 273.202H383.983C384.546 273.202 385.002 272.712 385.002 272.108C385.002 271.504 384.546 271.014 383.983 271.014Z" fill="white"/>
<path d="M372.184 271.196H360.638C360.075 271.196 359.618 271.686 359.618 272.29C359.618 272.894 360.075 273.384 360.638 273.384H372.184C372.747 273.384 373.204 272.894 373.204 272.29C373.204 271.686 372.747 271.196 372.184 271.196Z" fill="white"/>
<path d="M329.844 343.697L321.123 328.91L348.496 305.504L359.794 292.077C361.262 290.332 363.131 289.032 365.214 288.305C367.298 287.578 369.522 287.45 371.666 287.935C373.81 288.419 375.797 289.498 377.43 291.065C379.063 292.631 380.284 294.63 380.972 296.861C381.99 300.168 381.771 303.77 380.361 306.906C378.951 310.043 376.46 312.469 373.413 313.673L355.547 320.733L329.844 343.697Z" fill="#FFB6B6"/>
<path d="M125.224 236.484V308.351H172.161V236.484C172.162 235.967 172.008 235.464 171.722 235.047C171.436 234.631 171.034 234.324 170.573 234.172C170.356 234.095 170.129 234.057 169.901 234.059H127.491C127.193 234.059 126.899 234.121 126.624 234.243C126.349 234.364 126.099 234.543 125.889 234.768C125.678 234.993 125.511 235.26 125.397 235.555C125.283 235.849 125.224 236.165 125.224 236.484ZM143.541 261.178C143.554 259.761 144.087 258.407 145.025 257.41C145.964 256.412 147.231 255.853 148.552 255.853C149.873 255.853 151.14 256.412 152.079 257.41C153.017 258.407 153.55 259.761 153.562 261.178V269.517C153.556 270.937 153.025 272.297 152.086 273.299C151.147 274.301 149.876 274.864 148.552 274.864C147.227 274.864 145.957 274.301 145.018 273.299C144.079 272.297 143.548 270.937 143.541 269.517V261.178Z" fill="#2F2E41"/>
<path d="M125.08 306.053V312.983C125.081 313.342 125.214 313.686 125.45 313.941C125.686 314.195 126.006 314.34 126.341 314.342H171.044C171.379 314.341 171.699 314.197 171.936 313.942C172.172 313.687 172.305 313.342 172.305 312.983V306.053H125.08Z" fill="#020202"/>
<path d="M51.3856 128.207V259.426C51.3869 261.098 52.0067 262.702 53.109 263.884C54.2113 265.066 55.7061 265.731 57.265 265.733H238.545C240.104 265.731 241.599 265.066 242.701 263.884C243.804 262.702 244.423 261.098 244.425 259.426V128.207C244.421 126.536 243.8 124.935 242.698 123.754C241.596 122.573 240.103 121.909 238.545 121.907H57.265C55.7074 121.909 54.2141 122.573 53.1121 123.754C52.0102 124.935 51.3893 126.536 51.3856 128.207Z" fill="#020202"/>
<path d="M55.6384 129.839V257.807C55.6398 258.701 55.9713 259.557 56.5603 260.189C57.1492 260.821 57.9476 261.176 58.7806 261.178H237.036C237.869 261.176 238.668 260.821 239.257 260.189C239.846 259.557 240.177 258.701 240.179 257.807V129.839C240.178 128.945 239.848 128.087 239.259 127.454C238.669 126.821 237.87 126.464 237.036 126.462H58.7806C57.9466 126.464 57.1475 126.821 56.5584 127.454C55.9693 128.087 55.6385 128.945 55.6384 129.839Z" fill="white"/>
<path d="M88.7196 313.873C88.901 314.117 89.1316 314.314 89.3941 314.448C89.6566 314.583 89.9442 314.652 90.2352 314.651H196.286C196.576 314.65 196.862 314.581 197.124 314.447C197.386 314.313 197.616 314.118 197.799 313.876C197.982 313.635 198.112 313.352 198.18 313.05C198.248 312.748 198.253 312.433 198.193 312.128L196.547 303.74C196.479 303.398 196.332 303.08 196.12 302.814C195.908 302.549 195.637 302.344 195.332 302.22C195.111 302.127 194.877 302.079 194.64 302.08H91.8748C91.6379 302.079 91.403 302.127 91.1824 302.22C90.8777 302.344 90.6069 302.549 90.3947 302.814C90.1824 303.08 90.0355 303.398 89.9673 303.74L88.3211 312.128C88.2625 312.432 88.2679 312.747 88.3368 313.049C88.4058 313.351 88.5365 313.632 88.7196 313.873Z" fill="#2F2E41"/>
<path d="M231.251 144.09H64.4581C64.2848 144.086 64.1198 144.009 63.9986 143.876C63.8773 143.743 63.8094 143.565 63.8094 143.379C63.8094 143.193 63.8773 143.014 63.9986 142.881C64.1198 142.748 64.2848 142.671 64.4581 142.667H231.251C231.425 142.671 231.59 142.748 231.711 142.881C231.832 143.014 231.9 143.193 231.9 143.379C231.9 143.565 231.832 143.743 231.711 143.876C231.59 144.009 231.425 144.086 231.251 144.09Z" fill="#020202"/>
<path d="M75.812 139.034C77.9588 139.034 79.6992 137.126 79.6992 134.772C79.6992 132.418 77.9588 130.509 75.812 130.509C73.6651 130.509 71.9248 132.418 71.9248 134.772C71.9248 137.126 73.6651 139.034 75.812 139.034Z" fill="#020202"/>
<path d="M89.2405 139.034C91.3873 139.034 93.1277 137.126 93.1277 134.772C93.1277 132.418 91.3873 130.509 89.2405 130.509C87.0936 130.509 85.3533 132.418 85.3533 134.772C85.3533 137.126 87.0936 139.034 89.2405 139.034Z" fill="#020202"/>
<path d="M102.669 139.034C104.816 139.034 106.556 137.126 106.556 134.772C106.556 132.418 104.816 130.509 102.669 130.509C100.522 130.509 98.7817 132.418 98.7817 134.772C98.7817 137.126 100.522 139.034 102.669 139.034Z" fill="#020202"/>
<path d="M223.165 131.563H213.628C213.439 131.568 213.26 131.652 213.128 131.796C212.996 131.941 212.922 132.135 212.922 132.338C212.922 132.54 212.996 132.734 213.128 132.879C213.26 133.024 213.439 133.107 213.628 133.112H223.165C223.355 133.109 223.536 133.026 223.669 132.881C223.802 132.736 223.877 132.541 223.877 132.338C223.877 132.134 223.802 131.939 223.669 131.794C223.536 131.649 223.355 131.566 223.165 131.563Z" fill="#020202"/>
<path d="M223.165 134.471H213.628C213.439 134.476 213.259 134.559 213.127 134.704C212.995 134.849 212.921 135.043 212.921 135.246C212.921 135.448 212.995 135.642 213.127 135.787C213.259 135.932 213.439 136.015 213.628 136.02H223.165C223.355 136.017 223.537 135.935 223.67 135.79C223.804 135.645 223.878 135.449 223.878 135.246C223.878 135.042 223.804 134.846 223.67 134.701C223.537 134.556 223.355 134.474 223.165 134.471Z" fill="#020202"/>
<path d="M223.165 137.379H213.628C213.439 137.384 213.26 137.468 213.128 137.612C212.996 137.757 212.922 137.951 212.922 138.154C212.922 138.356 212.996 138.55 213.128 138.695C213.26 138.84 213.439 138.923 213.628 138.928H223.165C223.355 138.925 223.536 138.842 223.669 138.697C223.802 138.552 223.877 138.357 223.877 138.154C223.877 137.95 223.802 137.755 223.669 137.61C223.536 137.465 223.355 137.382 223.165 137.379Z" fill="#020202"/>
<path d="M453.1 309.094C453.388 309.993 453.934 310.771 454.66 311.316C455.385 311.862 456.253 312.146 457.139 312.129L474.445 311.651C475.338 311.633 476.201 311.305 476.905 310.717C477.609 310.128 478.117 309.312 478.352 308.388L480.801 280.298C481.67 280.72 482.616 280.928 483.57 280.908C484.399 280.886 485.215 280.688 485.972 280.328C486.73 279.967 487.414 279.45 487.985 278.805C488.556 278.161 489.003 277.403 489.301 276.573C489.599 275.743 489.742 274.859 489.721 273.97C489.7 273.081 489.516 272.206 489.18 271.393C488.844 270.58 488.362 269.847 487.761 269.234C487.16 268.622 486.453 268.142 485.68 267.822C484.906 267.503 484.082 267.35 483.253 267.372C482.872 267.371 482.492 267.413 482.119 267.499C481.714 267.028 481.221 266.654 480.672 266.4C480.124 266.146 479.532 266.019 478.935 266.025L452.314 266.762C452.093 266.771 451.874 266.8 451.658 266.85C451.074 266.967 450.52 267.216 450.034 267.582C449.547 267.947 449.14 268.42 448.838 268.969C448.536 269.518 448.348 270.129 448.285 270.763C448.222 271.396 448.287 272.037 448.474 272.641L453.1 309.094ZM481.304 278.39L483.046 271.696C483.245 270.923 483.249 270.108 483.06 269.332C483.144 269.332 483.219 269.289 483.303 269.288C484.498 269.262 485.654 269.745 486.518 270.631C487.381 271.517 487.882 272.735 487.91 274.016C487.938 275.298 487.491 276.539 486.667 277.468C485.843 278.397 484.709 278.937 483.515 278.97C482.742 278.996 481.978 278.796 481.304 278.39Z" fill="#2F2E41"/>
<path d="M451.658 266.85C452.225 270.328 458.601 272.774 466.268 272.349C473.319 272 479.084 269.345 480.14 266.197C479.749 266.073 479.342 266.015 478.935 266.025L452.314 266.762C452.093 266.771 451.874 266.8 451.658 266.85Z" fill="#020202"/>
<path d="M467.674 293.658C467.709 293.649 467.742 293.633 467.772 293.612L471.53 290.973C471.576 290.941 471.613 290.898 471.639 290.847C471.665 290.796 471.678 290.738 471.678 290.68C471.678 290.622 471.665 290.565 471.639 290.514C471.613 290.462 471.576 290.419 471.531 290.387L467.624 287.643C467.588 287.617 467.548 287.6 467.506 287.591C467.464 287.582 467.42 287.582 467.378 287.592C467.336 287.601 467.296 287.619 467.261 287.645C467.225 287.671 467.195 287.704 467.171 287.743C467.148 287.781 467.131 287.824 467.123 287.87C467.115 287.915 467.116 287.962 467.125 288.007C467.133 288.052 467.151 288.095 467.175 288.133C467.199 288.171 467.23 288.203 467.266 288.228L470.755 290.68L467.415 293.026C467.35 293.071 467.302 293.139 467.28 293.219C467.258 293.298 467.263 293.384 467.294 293.46C467.325 293.536 467.38 293.597 467.45 293.634C467.519 293.67 467.599 293.679 467.674 293.658Z" fill="#022840"/>
<path d="M461.737 293.952C461.801 293.935 461.857 293.898 461.901 293.846C461.944 293.794 461.972 293.729 461.981 293.66C461.99 293.591 461.979 293.52 461.95 293.458C461.922 293.395 461.876 293.343 461.82 293.308L458.356 291.178L461.704 288.51C461.738 288.483 461.767 288.448 461.789 288.409C461.811 288.369 461.826 288.326 461.832 288.28C461.838 288.235 461.836 288.188 461.826 288.144C461.815 288.099 461.797 288.057 461.771 288.02C461.746 287.983 461.714 287.952 461.677 287.929C461.64 287.905 461.599 287.889 461.557 287.883C461.514 287.876 461.471 287.878 461.43 287.89C461.388 287.901 461.349 287.921 461.315 287.948L457.566 290.935C457.522 290.97 457.487 291.015 457.464 291.068C457.441 291.121 457.431 291.179 457.434 291.237C457.437 291.295 457.454 291.351 457.483 291.401C457.511 291.45 457.551 291.491 457.598 291.52L461.495 293.916C461.568 293.962 461.655 293.974 461.737 293.952Z" fill="#022840"/>
<path d="M467.3 295.971C467.331 295.962 467.361 295.949 467.389 295.93C467.426 295.906 467.458 295.875 467.483 295.838C467.508 295.801 467.527 295.759 467.537 295.714C467.547 295.669 467.549 295.623 467.542 295.577C467.536 295.532 467.521 295.488 467.499 295.449L462.171 286.053C462.126 285.974 462.053 285.917 461.969 285.895C461.885 285.873 461.796 285.888 461.722 285.937C461.648 285.985 461.595 286.063 461.575 286.153C461.554 286.243 461.568 286.338 461.613 286.418L466.94 295.814C466.977 295.877 467.031 295.927 467.096 295.956C467.161 295.984 467.232 295.989 467.3 295.971Z" fill="#022840"/>
<path d="M167.784 182.77H138.915C137.738 182.77 136.783 183.794 136.783 185.058V188.083C136.783 189.346 137.738 190.37 138.915 190.37H167.784C168.961 190.37 169.916 189.346 169.916 188.083V185.058C169.916 183.794 168.961 182.77 167.784 182.77Z" fill="#022840"/>
<path d="M184.611 197.97H122.088C120.911 197.97 119.956 198.994 119.956 200.257V203.283C119.956 204.546 120.911 205.57 122.088 205.57H184.611C185.788 205.57 186.743 204.546 186.743 203.283V200.257C186.743 198.994 185.788 197.97 184.611 197.97Z" fill="#E6E6E6"/>
<path d="M184.611 213.17H122.088C120.911 213.17 119.956 214.194 119.956 215.457V218.483C119.956 219.746 120.911 220.77 122.088 220.77H184.611C185.788 220.77 186.743 219.746 186.743 218.483V215.457C186.743 214.194 185.788 213.17 184.611 213.17Z" fill="#E6E6E6"/>
<path d="M189.911 264.068L190.052 264.548L190.06 264.564L194.322 278.465L199.226 294.485L208.452 324.589L208.541 329.265V329.281L209.227 366.9L207.327 372L209.465 380.361C209.465 380.361 208.482 367.722 203.205 374.98C200.217 379.105 196.722 383.326 193.853 387.283C198.034 389.097 202.281 390.739 206.596 392.207C207.528 392.527 208.467 392.83 209.406 393.134C209.607 393.198 209.808 393.262 210.009 393.326C224.312 397.863 239.099 400.413 254.007 400.912C254.782 400.936 255.542 400.952 256.28 400.968C256.541 400.976 256.794 400.984 257.048 400.984C257.882 400.992 258.709 401 259.544 401C261.228 401 262.905 400.973 264.574 400.92C276.93 400.547 289.213 398.765 301.217 395.604C301.135 390.288 300.911 384.077 300.591 377.443C300.442 374.189 297.096 370.664 296.895 367.258C296.753 364.7 299.756 362.294 299.6 359.696C298.586 343.701 297.319 349.841 296.38 338.514C296.283 337.403 296.194 336.34 296.112 335.325C295.508 328.05 295.091 323.502 295.091 323.502L299.1 296.395L305.398 253.836L304.913 252.981L304.369 252.693L271.155 235.059L269.351 230.103C268.826 228.675 267.914 227.449 266.733 226.581C265.553 225.714 264.157 225.245 262.726 225.235L240.847 225.139C239.711 225.133 238.591 225.418 237.579 225.97C236.566 226.522 235.691 227.325 235.026 228.312L229.102 237.114L189.911 264.068Z" fill="#020202"/>
<path d="M213.497 317.89L208.541 329.265L205.158 337.035L199.338 369.722L196.424 373.039L193.928 361.295L167.798 367.518C166.941 362.41 167.569 367.691 167.04 362.088C167.189 361.928 167.345 361.768 167.502 361.608C167.919 361.192 168.27 360.801 168.262 360.425C167.964 341.096 168.858 308.202 176.325 288.273C177.495 285.02 179.037 281.934 180.916 279.089C181.065 278.873 181.207 278.657 181.348 278.441C184.791 273.269 186.967 268.177 190.052 264.556V264.548C190.072 264.531 190.089 264.513 190.105 264.492C190.116 264.486 190.126 264.478 190.134 264.468L211.328 252.414L212.238 279.816L212.886 299.513L213.497 317.89Z" fill="#020202"/>
<path d="M289.919 321.121L296.109 335.328L298.27 340.276L304.088 372.96L306.992 376.269L309.495 364.528L310.67 364.269L331.874 359.559L338.055 380.613C339.448 378.123 339.996 375.194 339.608 372.321C339.22 369.447 337.919 366.806 335.924 364.843C335.502 364.433 335.15 364.034 335.16 363.657C335.512 340.923 334.216 299.411 322.509 282.326C318.79 276.904 316.559 271.503 313.313 267.73C313.303 267.72 313.303 267.709 313.293 267.709L305.395 253.836L304.912 252.984L304.37 252.693L289.919 321.121Z" fill="#020202"/>
<path d="M252.418 218.46C268.494 218.46 281.527 204.481 281.527 187.236C281.527 169.992 268.494 156.013 252.418 156.013C236.342 156.013 223.31 169.992 223.31 187.236C223.31 204.481 236.342 218.46 252.418 218.46Z" fill="#FFB6B6"/>
<path d="M291.762 165.427C291.536 165.168 291.264 164.961 290.962 164.818C290.66 164.675 290.334 164.598 290.004 164.593L290.442 163.29C290.585 162.879 290.623 162.435 290.554 162.003C290.484 161.572 290.309 161.167 290.045 160.832C289.782 160.497 289.441 160.243 289.056 160.096C288.671 159.949 288.257 159.915 287.855 159.996L286.261 160.325L286.411 159.183C286.469 158.758 286.422 158.324 286.276 157.924C286.13 157.523 285.889 157.171 285.577 156.901C285.265 156.631 284.894 156.452 284.498 156.383C284.103 156.314 283.697 156.357 283.321 156.506C282.98 156.651 282.612 156.711 282.246 156.683C281.88 156.655 281.524 156.54 281.205 156.345C280.884 156.157 280.606 155.895 280.389 155.579C280.173 155.264 280.023 154.901 279.951 154.516L279.395 151.643L279.337 151.489C276.632 146.654 271.432 143.136 265.069 141.847C259.405 140.691 253.598 141.28 248 141.833C245.778 142.057 243.27 142.31 241.179 143.683C239.403 144.86 237.9 147.215 238.207 149.59C232.687 147.775 226.769 151.398 223.835 155.967C220.36 161.405 219.792 168.216 219.7 173.541C219.452 186.14 221.876 196.448 226.886 204.184C227.252 204.745 227.343 205.915 228.069 206.308L227.918 206.048C228.728 206.483 229.551 207.183 229.244 207.933C228.362 210.092 234.222 214.864 238.351 216.44C245.883 219.32 255.897 219.075 262.94 218.038L263.188 216.251C265.729 215.88 267.519 215.172 268.022 214.065C268.91 213.252 269.668 212.523 270.328 211.85L270.335 211.843C270.348 211.829 270.374 211.808 270.387 211.794C273.568 208.522 274.306 206.658 274.64 203.82C274.96 201.038 274.391 198.214 273.81 195.67C286.052 197.703 268.989 181.684 280.395 178.587C280.526 178.543 280.659 178.508 280.793 178.481C281.126 178.397 281.46 178.313 281.78 178.215C283.323 177.766 284.8 177.089 286.17 176.204C289.358 174.123 290.409 171.362 292.056 168.251C292.293 167.808 292.393 167.295 292.34 166.787C292.287 166.279 292.084 165.803 291.762 165.427Z" fill="#413D2E"/>
<path d="M355.37 323.344C355.363 324.57 355.35 326.287 355.298 328.41C355.291 328.705 355.285 329.006 355.278 329.314C355.193 333.217 355.108 336.49 354.971 340.127C354.965 340.379 354.958 340.624 354.945 340.876C354.762 345.95 354.475 351.857 353.978 361.212C353.057 378.492 351.45 363.587 349.837 369.649C349.758 369.95 349.673 370.307 349.595 370.728C349.351 372.253 348.938 373.742 348.367 375.163C347.511 375.71 346.629 376.235 345.76 376.761C343.284 378.24 340.769 379.662 338.235 381.014C336.811 381.771 335.38 382.514 333.943 383.229C333.714 383.341 333.492 383.453 333.27 383.558C325.91 387.21 318.326 390.314 310.569 392.85C309.053 393.34 307.544 393.817 306.016 394.258C304.422 394.735 302.828 395.183 301.214 395.604C289.211 398.765 276.928 400.548 264.573 400.922C262.907 400.978 261.228 400.999 259.543 400.999C258.707 400.999 257.883 400.992 257.047 400.985C256.792 400.985 256.538 400.978 256.283 400.971C255.545 400.95 254.78 400.936 254.01 400.915C239.101 400.416 224.315 397.866 210.012 393.326L209.405 393.137C208.464 392.829 207.53 392.527 206.596 392.205C202.284 390.741 198.036 389.101 193.851 387.286C190.656 385.906 187.499 384.425 184.378 382.843C184.35 382.835 184.323 382.821 184.3 382.801C183.647 382.479 182.987 382.143 182.334 381.799C182.249 381.75 182.157 381.701 182.066 381.652C179.629 380.377 177.219 379.041 174.834 377.644C172.829 372.704 170.007 371.758 168.256 367.413C167.746 366.122 167.378 364.773 167.158 363.391C167.158 363.377 167.152 363.363 167.152 363.342C167.335 365.949 166.374 358.717 167.145 363.314C167.139 363.23 167.132 363.139 167.126 363.034C167.106 362.781 167.08 362.473 167.041 362.088C164.8 338.62 164.944 311.782 163.97 289.667C163.905 288.237 163.838 286.869 163.768 285.561C163.748 285.126 163.722 284.699 163.696 284.278C163.742 284.152 163.794 284.019 163.853 283.893C163.865 283.856 163.881 283.821 163.899 283.788C163.918 283.744 163.94 283.702 163.964 283.662C163.977 283.641 163.997 283.612 164.01 283.591C164.019 283.567 164.03 283.544 164.042 283.521C164.101 283.423 164.166 283.318 164.238 283.22C164.271 283.178 164.297 283.143 164.33 283.108C164.352 283.072 164.379 283.039 164.408 283.01C164.428 282.976 164.452 282.946 164.48 282.919C164.506 282.891 164.532 282.856 164.565 282.821C164.579 282.799 164.597 282.78 164.617 282.765C164.669 282.701 164.726 282.642 164.787 282.589C165.02 282.359 165.269 282.149 165.532 281.959C165.623 281.896 165.721 281.833 165.813 281.763C166.471 281.34 167.164 280.984 167.883 280.697C168.132 280.599 168.38 280.508 168.648 280.41C168.746 280.382 168.837 280.347 168.935 280.312C169.079 280.263 169.223 280.214 169.373 280.179C170.118 279.941 170.921 279.737 171.79 279.548C171.894 279.527 172.006 279.506 172.117 279.478C172.273 279.443 172.437 279.415 172.6 279.387C172.822 279.345 173.051 279.303 173.279 279.261C175.22 278.932 177.421 278.686 179.851 278.525C180.08 278.511 180.308 278.497 180.537 278.483C180.805 278.469 181.073 278.455 181.347 278.441C181.576 278.427 181.811 278.42 182.046 278.413C182.275 278.399 182.51 278.392 182.752 278.385C183.411 278.364 184.091 278.343 184.783 278.329C186.756 278.287 188.834 278.301 191.015 278.35C192.028 278.378 193.06 278.406 194.118 278.455C194.19 278.455 194.256 278.462 194.321 278.462C195.242 278.497 196.17 278.539 197.123 278.595C197.79 278.63 198.463 278.665 199.135 278.707C199.769 278.749 200.409 278.792 201.056 278.841C201.559 278.869 202.062 278.911 202.572 278.946C203.003 278.981 203.434 279.016 203.865 279.044L204.453 279.086C204.773 279.114 205.093 279.135 205.42 279.17C206.138 279.233 206.857 279.296 207.589 279.359C208.314 279.429 209.052 279.499 209.79 279.569C210.528 279.639 211.273 279.716 212.018 279.794C212.096 279.801 212.168 279.808 212.24 279.815C212.919 279.892 213.599 279.962 214.285 280.039C214.441 280.053 214.605 280.067 214.762 280.088C215.416 280.158 216.082 280.241 216.742 280.316C216.945 280.339 217.146 280.362 217.349 280.386C217.866 280.446 218.376 280.499 218.897 280.564C219.583 280.648 220.282 280.726 220.961 280.824C221.49 280.887 222.019 280.95 222.548 281.02C223.378 281.125 224.221 281.237 225.063 281.356C225.384 281.398 225.704 281.44 226.024 281.489C228.428 281.812 230.858 282.169 233.327 282.54C237.07 283.108 240.872 283.725 244.7 284.39C248.535 285.056 252.392 285.759 256.27 286.5C257.25 286.689 258.23 286.878 259.216 287.074C259.66 287.165 260.104 287.256 260.549 287.347C261.306 287.495 262.064 287.649 262.822 287.803C263.58 287.957 264.338 288.111 265.095 288.272C265.997 288.462 266.905 288.651 267.806 288.84C273.745 290.101 279.65 291.447 285.412 292.855C286.359 293.086 287.306 293.325 288.247 293.556C290.128 294.025 291.992 294.502 293.839 294.985C294.348 295.112 294.851 295.245 295.354 295.378C296.609 295.714 297.863 296.051 299.098 296.394L299.313 296.457C300.221 296.695 301.11 296.94 301.998 297.193C304.095 297.781 306.157 298.377 308.185 298.98C309.53 299.379 310.861 299.783 312.176 300.192C314.142 300.801 316.069 301.418 317.944 302.042C318.408 302.196 318.872 302.35 319.329 302.497C320.701 302.953 322.053 303.415 323.366 303.878C324.412 304.242 325.431 304.613 326.437 304.985C327.443 305.356 328.429 305.728 329.396 306.099C330.017 306.337 330.631 306.59 331.245 306.828C332.127 307.178 332.995 307.529 333.845 307.879C334.106 307.984 334.361 308.096 334.616 308.201C334.779 308.278 334.936 308.341 335.092 308.411C335.399 308.545 335.713 308.671 336.014 308.804C336.321 308.93 336.621 309.063 336.922 309.203C337.216 309.329 337.516 309.463 337.803 309.596C338.097 309.722 338.385 309.855 338.672 309.995C338.914 310.1 339.149 310.212 339.378 310.324C339.842 310.542 340.305 310.759 340.756 310.983C340.978 311.095 341.2 311.2 341.423 311.312L341.932 311.565C342.004 311.607 342.076 311.642 342.148 311.677C342.311 311.761 342.481 311.852 342.644 311.936C343.023 312.125 343.395 312.329 343.761 312.518C344.251 312.784 344.728 313.05 345.185 313.31C345.649 313.576 346.1 313.842 346.531 314.101C346.603 314.143 346.668 314.185 346.74 314.228C346.838 314.284 346.936 314.347 347.034 314.403C347.367 314.606 347.687 314.816 348.007 315.019C348.635 315.433 349.229 315.839 349.784 316.246C349.908 316.337 350.026 316.428 350.15 316.512C350.562 316.827 350.954 317.136 351.319 317.451C351.319 317.458 351.319 317.458 351.326 317.458C351.45 317.556 351.568 317.661 351.685 317.759C351.783 317.857 351.888 317.941 351.986 318.039C352.325 318.355 352.639 318.656 352.926 318.964C353.023 319.06 353.114 319.16 353.201 319.266C353.239 319.3 353.274 319.337 353.305 319.378C353.436 319.518 353.554 319.658 353.665 319.798C353.682 319.818 353.697 319.839 353.71 319.861C353.867 320.058 354.011 320.254 354.148 320.45C354.213 320.548 354.285 320.646 354.344 320.744C354.422 320.863 354.501 320.99 354.566 321.109C354.625 321.207 354.677 321.312 354.729 321.41C354.868 321.663 354.986 321.928 355.082 322.202C355.156 322.388 355.215 322.58 355.259 322.776C355.308 322.963 355.345 323.152 355.37 323.344Z" fill="#2F2E41"/>
<path opacity="0.2" d="M355.37 323.344C355.363 324.57 355.35 326.287 355.298 328.41C355.291 328.705 355.278 329.006 355.272 329.314C355.206 332.292 355.108 335.971 354.971 340.127C354.965 340.379 354.958 340.624 354.945 340.876C354.762 345.95 354.475 351.857 353.978 361.212C353.057 378.492 351.45 363.587 349.837 369.649C345.355 366.691 340.443 363.594 335.19 360.413C334.243 359.838 333.287 359.261 332.323 358.682C321.818 352.396 310.086 345.81 297.837 339.286C297.354 339.027 296.864 338.767 296.38 338.515C268.323 323.638 237.698 309.168 212.887 299.512C208.098 297.648 203.525 295.966 199.227 294.488C190.173 291.384 182.347 289.211 176.324 288.272C170.052 287.291 165.721 287.642 163.97 289.667C163.905 288.237 163.837 286.869 163.768 285.561C163.742 285.126 163.716 284.699 163.689 284.278C163.73 284.163 163.782 284.053 163.833 283.942C163.84 283.926 163.845 283.909 163.853 283.893C163.865 283.856 163.881 283.821 163.899 283.788C163.918 283.744 163.94 283.702 163.964 283.662C163.985 283.612 164.011 283.565 164.042 283.521C164.101 283.423 164.166 283.318 164.238 283.22C164.291 283.147 164.348 283.076 164.408 283.01C164.428 282.976 164.452 282.946 164.48 282.919C164.506 282.891 164.532 282.856 164.565 282.821C164.579 282.799 164.597 282.78 164.617 282.765C164.669 282.701 164.726 282.642 164.787 282.589C165.02 282.359 165.269 282.149 165.532 281.959C165.623 281.896 165.721 281.833 165.813 281.763C166.471 281.34 167.164 280.984 167.883 280.697C168.132 280.599 168.38 280.508 168.648 280.41C168.746 280.382 168.837 280.347 168.935 280.312C169.079 280.263 169.223 280.214 169.373 280.179C170.118 279.941 170.921 279.737 171.79 279.548C172.051 279.492 172.326 279.436 172.6 279.387C172.822 279.345 173.051 279.303 173.279 279.261C175.22 278.932 177.421 278.686 179.851 278.525C180.08 278.511 180.308 278.497 180.537 278.483C180.805 278.469 181.073 278.455 181.347 278.441C181.576 278.427 181.811 278.42 182.046 278.413C182.275 278.399 182.51 278.392 182.752 278.385C183.411 278.364 184.091 278.343 184.783 278.329C186.756 278.294 188.834 278.308 191.015 278.357C192.028 278.378 193.06 278.413 194.118 278.462C194.184 278.462 194.256 278.469 194.321 278.469C195.242 278.497 196.176 278.546 197.123 278.595C197.79 278.63 198.463 278.665 199.135 278.707C199.769 278.749 200.409 278.791 201.056 278.84C201.559 278.869 202.062 278.911 202.572 278.946C203.003 278.981 203.434 279.016 203.865 279.044C204.381 279.086 204.897 279.128 205.42 279.17C206.138 279.233 206.857 279.296 207.589 279.359C208.314 279.429 209.052 279.499 209.79 279.569C210.528 279.639 211.273 279.716 212.018 279.793C212.096 279.8 212.168 279.808 212.24 279.815C212.919 279.892 213.599 279.962 214.285 280.039C218.087 280.452 222 280.936 226.024 281.489C228.428 281.819 230.862 282.171 233.327 282.547C237.07 283.115 240.872 283.732 244.701 284.39C248.535 285.056 252.392 285.759 256.27 286.5C257.25 286.689 258.23 286.878 259.216 287.074C260.418 287.312 261.62 287.555 262.822 287.803C263.58 287.957 264.338 288.111 265.095 288.272C265.997 288.462 266.905 288.651 267.806 288.84C273.745 290.101 279.65 291.447 285.412 292.855C286.359 293.086 287.306 293.325 288.247 293.556C290.128 294.025 291.992 294.502 293.839 294.985C294.348 295.119 294.851 295.252 295.354 295.385C296.615 295.721 297.863 296.058 299.098 296.394V296.401C299.17 296.415 299.241 296.436 299.313 296.457C300.215 296.702 301.11 296.947 301.998 297.2C304.095 297.788 306.157 298.382 308.185 298.98C309.53 299.386 310.863 299.785 312.176 300.192C314.142 300.809 316.069 301.425 317.944 302.042C318.408 302.196 318.872 302.35 319.329 302.497C320.701 302.96 322.047 303.42 323.366 303.878C324.412 304.242 325.431 304.613 326.437 304.985C327.443 305.356 328.429 305.728 329.396 306.099C330.023 306.337 330.637 306.583 331.245 306.821C332.133 307.171 332.995 307.522 333.845 307.879C334.106 307.984 334.361 308.096 334.616 308.201C335.092 308.397 335.556 308.601 336.014 308.804C336.321 308.93 336.621 309.063 336.922 309.203C337.216 309.329 337.516 309.463 337.803 309.596C338.097 309.722 338.385 309.855 338.672 309.995C338.914 310.1 339.149 310.212 339.378 310.324C339.842 310.542 340.305 310.759 340.756 310.983C340.978 311.095 341.2 311.2 341.423 311.312L341.932 311.565C342.004 311.607 342.076 311.642 342.148 311.677C342.703 311.957 343.239 312.237 343.761 312.518C344.251 312.784 344.728 313.05 345.185 313.31C345.728 313.618 346.244 313.919 346.74 314.228C346.838 314.284 346.936 314.347 347.034 314.403C347.367 314.606 347.687 314.816 348.007 315.019C348.635 315.433 349.229 315.839 349.784 316.246C350.333 316.652 350.843 317.051 351.319 317.451C351.319 317.458 351.319 317.458 351.326 317.458C351.555 317.654 351.777 317.85 351.986 318.039C352.326 318.355 352.639 318.656 352.927 318.964C353.023 319.06 353.114 319.16 353.201 319.266C353.239 319.3 353.274 319.337 353.305 319.378C353.443 319.539 353.58 319.7 353.71 319.861C353.867 320.058 354.011 320.254 354.148 320.45C354.213 320.548 354.285 320.646 354.344 320.744C354.423 320.863 354.501 320.99 354.566 321.109C354.625 321.207 354.677 321.312 354.73 321.41C354.868 321.663 354.986 321.927 355.082 322.202C355.154 322.389 355.213 322.581 355.259 322.776C355.308 322.963 355.345 323.152 355.37 323.344Z" fill="black"/>
</g>
<defs>
<clipPath id="clip0_6_124">
<rect width="514" height="401" fill="white"/>
</clipPath>
</defs>
</svg>
