<?xml version="1.0" encoding="UTF-8"?>
<svg xmlns="http://www.w3.org/2000/svg" xmlns:xlink="http://www.w3.org/1999/xlink" width="514px" height="401px" viewBox="0 0 513 401" version="1.1">
<g id="surface1">
<path style=" stroke:none;fill-rule:nonzero;fill:rgb(0%,0%,0%);fill-opacity:1;" d="M 306.402344 36.730469 L 306.402344 73.5625 L 285.59375 73.363281 L 264.734375 73.164062 L 258.746094 71.5625 C 245.421875 68.015625 232.546875 59.671875 224.0625 49.125 C 214.332031 37.082031 208.59375 22.339844 207.746094 7.597656 C 207.59375 4.546875 207.246094 2 206.996094 2 C 206.746094 2 205.550781 2.25 204.300781 2.546875 L 202.105469 3.097656 L 202.105469 73.464844 L 176.257812 73.464844 L 175.957031 70.316406 C 175.757812 68.617188 174.957031 57.070312 174.160156 44.726562 C 172.015625 13.144531 172.066406 13.492188 171.664062 13.492188 C 171.015625 13.492188 161.386719 17.890625 155.097656 21.039062 C 143.121094 27.035156 131.144531 34.433594 119.46875 43.078125 L 113.277344 47.675781 L 113.277344 121.9375 L 84.585938 121.9375 C 59.882812 121.9375 55.640625 122.039062 54.394531 122.6875 C 51.199219 124.339844 51.398438 119.742188 51.398438 193.804688 L 51.398438 261.21875 L 52.546875 262.917969 C 53.195312 263.867188 54.445312 264.867188 55.390625 265.21875 C 56.691406 265.667969 64.824219 265.816406 85.234375 265.816406 L 113.277344 265.867188 L 113.277344 288.855469 L 125.253906 288.855469 L 125.253906 301.847656 L 108.488281 301.847656 C 91.722656 301.847656 89.824219 302.050781 89.824219 303.597656 C 89.824219 304.25 83.886719 304.347656 45.0625 304.449219 L 0.300781 304.597656 L 4.09375 309.097656 C 6.136719 311.542969 10.082031 315.992188 12.875 318.890625 L 17.914062 324.1875 L 91.121094 324.488281 C 131.394531 324.636719 164.378906 324.886719 164.480469 324.9375 C 164.578125 325.039062 164.878906 330.636719 165.179688 337.332031 C 165.476562 344.078125 166.027344 353.324219 166.425781 357.921875 C 167.222656 366.96875 167.523438 367.964844 171.214844 372.214844 C 172.015625 373.113281 173.0625 374.664062 173.613281 375.710938 C 174.410156 377.261719 175.558594 378.113281 180.25 380.609375 C 196.21875 389.304688 214.332031 395.503906 232.546875 398.5 C 264.433594 403.75 296.171875 399.601562 326.265625 386.257812 C 334 382.808594 346.175781 376.210938 347.371094 374.8125 C 347.820312 374.261719 348.371094 373.015625 348.519531 372.015625 C 348.71875 371.015625 349.121094 369.664062 349.367188 368.964844 C 349.816406 367.714844 349.867188 367.714844 350.867188 368.617188 C 352.710938 370.265625 352.863281 369.367188 353.808594 350.574219 C 354.109375 345.328125 354.308594 338.832031 354.308594 336.03125 C 354.308594 333.234375 354.460938 329.585938 354.660156 327.886719 L 354.957031 324.738281 L 424.773438 324.988281 L 494.535156 325.1875 L 500.675781 318.890625 C 504.015625 315.394531 508.160156 310.796875 509.90625 308.695312 L 513.050781 304.847656 L 477.46875 304.847656 L 477.769531 303.5 C 477.917969 302.699219 478.417969 297.203125 478.867188 291.203125 L 479.765625 280.308594 L 481.363281 280.609375 C 485.253906 281.308594 488.546875 278.109375 488.546875 273.664062 C 488.546875 271.515625 488.347656 271.015625 486.601562 269.316406 C 485.152344 267.867188 484.257812 267.367188 483.109375 267.367188 C 482.210938 267.367188 480.863281 267.015625 480.113281 266.617188 C 478.917969 266.015625 476.472656 265.96875 464.445312 266.265625 C 450.273438 266.617188 450.171875 266.617188 448.925781 267.816406 C 447.976562 268.714844 447.628906 269.566406 447.628906 270.816406 C 447.628906 271.8125 448.527344 279.5625 449.625 288.105469 C 450.722656 296.601562 451.621094 303.898438 451.621094 304.199219 C 451.621094 304.699219 447.328125 304.847656 431.707031 304.847656 L 411.847656 304.847656 L 411.496094 303.199219 C 411.296875 302.347656 411.148438 287.355469 411.199219 269.914062 C 411.25 240.878906 411.148438 238.179688 410.398438 237.332031 C 409.703125 236.53125 408.804688 236.382812 404.859375 236.382812 L 400.21875 236.382812 L 400.21875 41.179688 L 391.886719 35.632812 C 387.246094 32.582031 381.507812 28.9375 379.0625 27.535156 C 368.183594 21.140625 343.679688 9.84375 342.882812 10.84375 C 342.683594 11.042969 341.683594 24.1875 340.636719 39.980469 C 339.589844 55.773438 338.640625 69.765625 338.488281 71.066406 L 338.191406 73.464844 L 311.394531 73.464844 L 311.394531 1.097656 L 309.796875 0.75 C 308.898438 0.550781 307.75 0.300781 307.300781 0.199219 C 306.453125 -0.0507812 306.402344 1.949219 306.402344 36.730469 Z M 202.105469 100.449219 L 202.105469 121.9375 L 179.351562 121.9375 L 178.003906 101.300781 C 177.253906 90.003906 176.605469 80.308594 176.65625 79.808594 C 176.65625 79.011719 177.605469 78.960938 189.378906 78.960938 L 202.105469 78.960938 Z M 306.304688 108.796875 L 306.152344 138.679688 L 269.722656 138.679688 L 269.574219 137.179688 C 269.476562 136.332031 268.925781 135.183594 268.328125 134.53125 C 267.328125 133.484375 267.03125 133.433594 257.945312 133.433594 C 252.808594 133.433594 248.214844 133.582031 247.765625 133.734375 C 246.820312 134.132812 245.519531 136.480469 245.519531 137.929688 C 245.519531 138.480469 245.222656 138.929688 244.824219 138.929688 C 244.222656 138.929688 244.074219 137.582031 243.925781 132.132812 L 243.773438 125.335938 L 241.929688 123.636719 L 240.03125 121.9375 L 207.59375 121.9375 L 207.59375 78.960938 L 306.402344 78.960938 Z M 337.839844 80.058594 C 337.839844 82.058594 334.347656 134.582031 334.050781 136.78125 L 333.800781 138.929688 L 311.394531 138.929688 L 311.394531 78.960938 L 337.839844 78.960938 Z M 238.636719 127.285156 C 239.433594 127.984375 239.53125 128.984375 239.53125 136.433594 C 239.53125 142.980469 239.382812 144.925781 238.785156 145.726562 C 238.386719 146.226562 238.035156 147.328125 238.035156 148.125 C 238.035156 149.476562 237.9375 149.527344 236.238281 149.226562 C 233.792969 148.726562 229.703125 150.023438 227.007812 152.125 C 224.0625 154.371094 221.816406 158.320312 220.519531 163.417969 C 219.570312 167.167969 219.472656 168.566406 219.722656 177.113281 C 219.921875 185.257812 220.121094 187.355469 221.21875 191.503906 C 222.566406 196.601562 226.558594 205.199219 228.054688 206.246094 C 228.554688 206.597656 228.902344 207.445312 228.953125 208.195312 C 228.953125 210.046875 232.597656 213.59375 236.4375 215.492188 L 239.53125 217.042969 L 239.53125 224.789062 L 237.6875 225.738281 C 236.289062 226.386719 234.792969 228.035156 232.148438 231.882812 L 228.453125 237.132812 L 211.238281 248.976562 L 193.972656 260.871094 L 125.503906 260.871094 C 62.378906 260.871094 56.9375 260.820312 56.339844 260.019531 C 55.742188 259.371094 55.640625 248.476562 55.492188 194.703125 C 55.441406 159.21875 55.492188 129.683594 55.640625 129.085938 C 55.792969 128.484375 56.242188 127.636719 56.691406 127.238281 C 57.386719 126.535156 66.371094 126.4375 147.5625 126.4375 C 230.75 126.4375 237.785156 126.488281 238.636719 127.285156 Z M 332.5 157.273438 C 332.652344 157.519531 332.453125 161.917969 332.050781 167.167969 C 331.402344 176.460938 327.363281 235.683594 327.363281 236.132812 C 327.363281 236.28125 326.714844 236.382812 325.914062 236.382812 C 323.121094 236.382812 323.121094 236.082031 322.871094 260.71875 L 322.621094 283.410156 L 319.675781 278.511719 C 318.078125 275.8125 315.585938 271.8125 314.1875 269.664062 C 312.789062 267.464844 309.945312 262.769531 307.898438 259.222656 L 304.15625 252.722656 L 287.441406 243.828125 L 270.773438 234.984375 L 269.375 231.632812 C 267.777344 227.636719 266.429688 226.039062 264.035156 225.386719 C 263.039062 225.136719 258.148438 224.886719 253.15625 224.886719 L 244.023438 224.886719 L 244.023438 218.140625 L 250.5625 218.339844 C 259.046875 218.539062 262.488281 218.140625 262.488281 216.890625 C 262.488281 216.242188 262.988281 215.890625 264.335938 215.640625 C 265.730469 215.390625 266.980469 214.492188 269.273438 212.195312 C 273.617188 207.644531 274.164062 206.296875 273.867188 200.351562 C 273.714844 197.601562 273.816406 195.550781 274.066406 195.703125 C 274.316406 195.851562 275.164062 195.851562 275.960938 195.652344 C 278.058594 195.203125 278.308594 193.652344 276.960938 189.304688 C 274.8125 182.210938 275.613281 179.859375 280.652344 178.261719 C 285.195312 176.8125 287.890625 174.613281 289.984375 170.765625 C 291.882812 167.167969 291.980469 165.765625 290.382812 164.867188 C 289.683594 164.519531 289.535156 164.019531 289.734375 162.96875 C 290.085938 161.21875 288.785156 159.71875 287.089844 160.070312 C 286.242188 160.21875 285.941406 160.070312 285.941406 159.371094 C 285.941406 158.921875 285.792969 158.171875 285.644531 157.722656 C 285.34375 157.023438 287.589844 156.921875 308.796875 156.921875 C 321.722656 156.921875 332.402344 157.070312 332.5 157.273438 Z M 355.207031 252.222656 C 355.355469 253.375 355.355469 253.375 348.820312 253.375 C 343.28125 253.375 342.234375 253.273438 341.984375 252.574219 C 341.484375 251.175781 342.882812 250.875 349.070312 250.976562 C 354.859375 251.125 355.058594 251.175781 355.207031 252.222656 Z M 383.503906 252.125 C 383.503906 253.074219 383.101562 253.125 377.316406 253.273438 C 371.027344 253.421875 369.878906 253.125 370.429688 251.625 C 370.726562 250.976562 371.675781 250.875 377.113281 250.976562 C 383.101562 251.125 383.503906 251.175781 383.503906 252.125 Z M 339.988281 251.675781 C 340.6875 252.425781 339.589844 253.375 338.042969 253.375 C 336.695312 253.375 336.34375 253.171875 336.34375 252.375 C 336.34375 251.574219 336.695312 251.375 337.992188 251.375 C 338.9375 251.375 339.789062 251.523438 339.988281 251.675781 Z M 361.195312 252.222656 C 360.996094 253.222656 358.5 253.773438 357.703125 252.972656 C 356.855469 252.125 357.753906 251.375 359.597656 251.375 C 360.996094 251.375 361.34375 251.574219 361.195312 252.222656 Z M 367.285156 252.375 C 367.285156 253.171875 366.933594 253.375 365.585938 253.375 C 364.640625 253.375 363.691406 253.125 363.542969 252.875 C 362.992188 251.972656 363.789062 251.375 365.585938 251.375 C 366.933594 251.375 367.285156 251.574219 367.285156 252.375 Z M 361.046875 257.121094 C 361.046875 258.070312 360.648438 258.121094 354.859375 258.269531 C 348.570312 258.421875 347.421875 258.121094 347.972656 256.621094 C 348.269531 255.972656 349.21875 255.871094 354.660156 255.972656 C 360.648438 256.121094 361.046875 256.171875 361.046875 257.121094 Z M 388.992188 257.121094 C 388.992188 258.070312 388.59375 258.121094 383.003906 258.269531 C 376.816406 258.371094 375.417969 258.070312 375.917969 256.671875 C 376.214844 255.972656 377.113281 255.871094 382.605469 255.972656 C 388.59375 256.121094 388.992188 256.171875 388.992188 257.121094 Z M 345.726562 257.222656 C 345.625 257.871094 345.078125 258.121094 343.828125 258.121094 C 342.582031 258.121094 342.035156 257.871094 341.933594 257.222656 C 341.785156 256.523438 342.132812 256.371094 343.828125 256.371094 C 345.527344 256.371094 345.875 256.523438 345.726562 257.222656 Z M 366.785156 257.371094 C 366.785156 258.171875 366.4375 258.371094 365.089844 258.371094 C 364.140625 258.371094 363.191406 258.121094 363.042969 257.871094 C 362.492188 256.972656 363.292969 256.371094 365.089844 256.371094 C 366.4375 256.371094 366.785156 256.570312 366.785156 257.371094 Z M 372.773438 257.371094 C 372.773438 258.171875 372.425781 258.371094 371.078125 258.371094 C 370.078125 258.371094 369.28125 258.070312 369.128906 257.671875 C 368.730469 256.671875 369.230469 256.371094 371.125 256.371094 C 372.425781 256.371094 372.773438 256.570312 372.773438 257.371094 Z M 350.765625 261.320312 C 351.914062 262.070312 351.015625 263.367188 349.367188 263.367188 C 347.621094 263.367188 346.972656 262.617188 347.820312 261.621094 C 348.519531 260.769531 349.71875 260.671875 350.765625 261.320312 Z M 366.535156 262.121094 C 366.535156 263.070312 366.136719 263.117188 360.546875 263.269531 C 354.359375 263.367188 352.960938 263.070312 353.460938 261.667969 C 353.761719 260.96875 354.660156 260.871094 360.148438 260.96875 C 366.136719 261.121094 366.535156 261.167969 366.535156 262.121094 Z M 372.125 261.417969 C 373.023438 262.320312 372.273438 263.367188 370.777344 263.367188 C 369.179688 263.367188 368.53125 262.71875 368.980469 261.621094 C 369.28125 260.71875 371.328125 260.621094 372.125 261.417969 Z M 378.261719 261.621094 C 379.109375 262.617188 378.460938 263.367188 376.765625 263.367188 C 375.167969 263.367188 374.519531 262.71875 374.96875 261.621094 C 375.320312 260.671875 377.464844 260.671875 378.261719 261.621094 Z M 394.980469 261.371094 C 395.179688 261.667969 395.03125 262.269531 394.679688 262.667969 C 394.179688 263.269531 392.882812 263.367188 388.042969 263.269531 C 382.203125 263.117188 382.003906 263.070312 381.855469 261.96875 C 381.707031 260.871094 381.753906 260.871094 388.191406 260.871094 C 392.136719 260.871094 394.78125 261.070312 394.980469 261.371094 Z M 356.65625 266.417969 C 357.554688 267.316406 356.804688 268.367188 355.308594 268.367188 C 353.710938 268.367188 353.0625 267.714844 353.511719 266.617188 C 353.808594 265.71875 355.855469 265.617188 356.65625 266.417969 Z M 372.273438 266.867188 C 372.273438 267.816406 371.925781 267.867188 365.835938 267.867188 C 362.042969 267.867188 359.25 267.667969 359.050781 267.367188 C 358.300781 266.167969 359.648438 265.867188 365.835938 265.867188 C 371.925781 265.867188 372.273438 265.917969 372.273438 266.867188 Z M 378.011719 267.117188 C 378.011719 267.867188 377.613281 268.167969 376.566406 268.265625 C 374.917969 268.464844 374.019531 267.765625 374.46875 266.617188 C 374.917969 265.367188 378.011719 265.816406 378.011719 267.117188 Z M 384 267.117188 C 384 267.867188 383.601562 268.167969 382.554688 268.265625 C 380.90625 268.464844 380.007812 267.765625 380.457031 266.617188 C 380.90625 265.367188 384 265.816406 384 267.117188 Z M 485.753906 270.914062 C 487.300781 272.765625 487.398438 274.5625 486.050781 276.710938 C 485.105469 278.3125 483.457031 279.109375 481.710938 278.761719 C 480.664062 278.5625 480.613281 277.5625 481.609375 272.714844 C 482.210938 269.816406 482.410156 269.367188 483.359375 269.367188 C 483.957031 269.367188 485.054688 270.066406 485.753906 270.914062 Z M 356.953125 271.566406 C 357.351562 272.5625 356.855469 272.863281 354.957031 272.863281 C 353.660156 272.863281 353.3125 272.664062 353.3125 271.863281 C 353.3125 271.066406 353.660156 270.863281 355.007812 270.863281 C 356.007812 270.863281 356.804688 271.164062 356.953125 271.566406 Z M 372.175781 272.214844 C 372.324219 273.363281 372.324219 273.363281 365.785156 273.363281 C 360.246094 273.363281 359.199219 273.265625 358.949219 272.5625 C 358.453125 271.164062 359.847656 270.863281 366.035156 270.964844 C 371.824219 271.113281 372.023438 271.164062 372.175781 272.214844 Z M 378.164062 271.964844 C 378.3125 272.714844 377.964844 272.863281 376.316406 272.863281 C 374.371094 272.863281 373.671875 272.164062 374.621094 271.164062 C 375.320312 270.464844 378.011719 271.113281 378.164062 271.964844 Z M 384.152344 271.964844 C 384.300781 272.714844 383.953125 272.863281 382.304688 272.863281 C 380.359375 272.863281 379.660156 272.164062 380.609375 271.164062 C 381.308594 270.464844 384 271.113281 384.152344 271.964844 Z M 351.316406 276.863281 C 351.316406 277.660156 350.964844 277.863281 349.617188 277.863281 C 348.671875 277.863281 347.722656 277.613281 347.574219 277.363281 C 347.023438 276.460938 347.820312 275.863281 349.617188 275.863281 C 350.964844 275.863281 351.316406 276.0625 351.316406 276.863281 Z M 366.535156 277.113281 C 366.535156 278.0625 366.136719 278.109375 360.347656 278.261719 C 354.058594 278.410156 352.910156 278.109375 353.460938 276.613281 C 353.761719 275.960938 354.707031 275.863281 360.148438 275.960938 C 366.136719 276.113281 366.535156 276.164062 366.535156 277.113281 Z M 372.523438 276.863281 C 372.523438 277.363281 371.925781 277.660156 370.675781 277.761719 C 369.03125 277.910156 368.78125 277.761719 368.78125 276.863281 C 368.78125 275.960938 369.03125 275.8125 370.675781 275.960938 C 371.925781 276.0625 372.523438 276.363281 372.523438 276.863281 Z M 378.511719 276.863281 C 378.511719 277.363281 377.914062 277.660156 376.664062 277.761719 C 375.019531 277.910156 374.769531 277.761719 374.769531 276.863281 C 374.769531 275.960938 375.019531 275.8125 376.664062 275.960938 C 377.914062 276.0625 378.511719 276.363281 378.511719 276.863281 Z M 345.578125 281.859375 C 345.578125 282.359375 344.976562 282.660156 343.730469 282.757812 C 342.082031 282.910156 341.832031 282.757812 341.832031 281.859375 C 341.832031 280.960938 342.082031 280.808594 343.730469 280.960938 C 344.976562 281.058594 345.578125 281.359375 345.578125 281.859375 Z M 361.046875 281.359375 C 361.246094 281.660156 361.097656 282.257812 360.746094 282.660156 C 360.246094 283.257812 358.949219 283.359375 354.109375 283.257812 C 348.269531 283.109375 348.070312 283.058594 347.921875 281.960938 C 347.773438 280.859375 347.820312 280.859375 354.257812 280.859375 C 358.203125 280.859375 360.847656 281.058594 361.046875 281.359375 Z M 366.785156 281.859375 C 366.785156 282.660156 366.4375 282.859375 365.136719 282.859375 C 363.242188 282.859375 362.742188 282.558594 363.140625 281.558594 C 363.292969 281.160156 364.089844 280.859375 365.089844 280.859375 C 366.4375 280.859375 366.785156 281.058594 366.785156 281.859375 Z M 372.773438 281.859375 C 372.773438 282.660156 372.425781 282.859375 371.027344 282.859375 C 369.628906 282.859375 369.28125 282.660156 369.28125 281.859375 C 369.28125 281.058594 369.628906 280.859375 371.027344 280.859375 C 372.425781 280.859375 372.773438 281.058594 372.773438 281.859375 Z M 339.988281 286.15625 C 340.6875 286.90625 339.589844 287.855469 338.042969 287.855469 C 336.695312 287.855469 336.34375 287.65625 336.34375 286.855469 C 336.34375 286.058594 336.695312 285.859375 337.992188 285.859375 C 338.9375 285.859375 339.789062 286.007812 339.988281 286.15625 Z M 355.308594 286.855469 C 355.308594 287.804688 354.957031 287.855469 348.871094 287.855469 C 345.078125 287.855469 342.28125 287.65625 342.082031 287.355469 C 341.335938 286.15625 342.683594 285.859375 348.871094 285.859375 C 354.957031 285.859375 355.308594 285.90625 355.308594 286.855469 Z M 361.195312 286.707031 C 360.996094 287.707031 358.5 288.257812 357.703125 287.457031 C 356.855469 286.605469 357.753906 285.859375 359.597656 285.859375 C 360.996094 285.859375 361.34375 286.058594 361.195312 286.707031 Z M 367.285156 286.605469 C 367.285156 287.007812 367.582031 287.355469 367.984375 287.355469 C 368.382812 287.355469 369.03125 287.507812 369.429688 287.65625 C 369.878906 287.804688 370.226562 287.507812 370.429688 286.855469 C 370.675781 285.859375 370.976562 285.859375 377.113281 285.957031 C 382.703125 286.105469 383.503906 286.207031 383.652344 286.957031 C 383.800781 287.757812 383.304688 287.855469 378.164062 287.90625 C 372.722656 287.90625 372.574219 287.957031 373.769531 288.757812 C 376.367188 290.457031 379.160156 293.804688 379.960938 296.152344 C 381.65625 301.148438 380.359375 307.097656 376.914062 310.445312 C 374.519531 312.695312 374.46875 312.742188 363.890625 316.941406 C 359.050781 318.839844 354.859375 320.589844 354.558594 320.839844 C 354.210938 321.140625 353.710938 320.789062 353.113281 319.839844 C 352.261719 318.339844 348.070312 315.144531 343.730469 312.644531 C 342.382812 311.894531 341.335938 311.195312 341.335938 311.09375 C 341.335938 310.996094 342.832031 309.644531 344.628906 308.097656 C 346.425781 306.546875 350.515625 302.25 353.609375 298.449219 C 359.148438 291.804688 362.792969 288.40625 364.238281 288.355469 C 364.789062 288.355469 364.738281 288.15625 364.039062 287.707031 C 362.792969 286.757812 363.542969 285.859375 365.585938 285.859375 C 366.785156 285.859375 367.285156 286.105469 367.285156 286.605469 Z M 367.285156 286.605469 "/>
<path style=" stroke:none;fill-rule:nonzero;fill:rgb(0%,0%,0%);fill-opacity:1;" d="M 73.109375 131.683594 C 70.613281 134.132812 72.257812 138.929688 75.601562 138.929688 C 77.5 138.929688 79.34375 136.832031 79.34375 134.683594 C 79.34375 132.535156 77.5 130.433594 75.601562 130.433594 C 74.902344 130.433594 73.757812 130.984375 73.109375 131.683594 Z M 73.109375 131.683594 "/>
<path style=" stroke:none;fill-rule:nonzero;fill:rgb(0%,0%,0%);fill-opacity:1;" d="M 86.582031 131.683594 C 84.085938 134.132812 85.734375 138.929688 89.078125 138.929688 C 90.972656 138.929688 92.820312 136.832031 92.820312 134.683594 C 92.820312 132.535156 90.972656 130.433594 89.078125 130.433594 C 88.378906 130.433594 87.230469 130.984375 86.582031 131.683594 Z M 86.582031 131.683594 "/>
<path style=" stroke:none;fill-rule:nonzero;fill:rgb(0%,0%,0%);fill-opacity:1;" d="M 100.054688 131.683594 C 97.558594 134.132812 99.207031 138.929688 102.550781 138.929688 C 104.445312 138.929688 106.292969 136.832031 106.292969 134.683594 C 106.292969 132.535156 104.445312 130.433594 102.550781 130.433594 C 101.851562 130.433594 100.703125 130.984375 100.054688 131.683594 Z M 100.054688 131.683594 "/>
<path style=" stroke:none;fill-rule:nonzero;fill:rgb(0%,0%,0%);fill-opacity:1;" d="M 212.933594 131.734375 C 211.988281 132.734375 213.035156 132.933594 217.976562 132.832031 C 221.117188 132.734375 223.316406 132.484375 223.316406 132.183594 C 223.316406 131.632812 213.484375 131.183594 212.933594 131.734375 Z M 212.933594 131.734375 "/>
<path style=" stroke:none;fill-rule:nonzero;fill:rgb(0%,0%,0%);fill-opacity:1;" d="M 212.585938 135.183594 C 212.585938 135.832031 213.335938 135.933594 217.976562 135.832031 C 221.117188 135.730469 223.316406 135.484375 223.316406 135.183594 C 223.316406 134.882812 221.117188 134.632812 217.976562 134.53125 C 213.335938 134.433594 212.585938 134.53125 212.585938 135.183594 Z M 212.585938 135.183594 "/>
<path style=" stroke:none;fill-rule:nonzero;fill:rgb(0%,0%,0%);fill-opacity:1;" d="M 212.585938 138.179688 C 212.585938 138.832031 213.335938 138.929688 217.976562 138.832031 C 221.117188 138.730469 223.316406 138.480469 223.316406 138.179688 C 223.316406 137.882812 221.117188 137.632812 217.976562 137.53125 C 213.335938 137.429688 212.585938 137.53125 212.585938 138.179688 Z M 212.585938 138.179688 "/>
<path style=" stroke:none;fill-rule:nonzero;fill:rgb(0%,0%,0%);fill-opacity:1;" d="M 64.226562 142.777344 C 64.023438 142.929688 63.875 143.277344 63.875 143.527344 C 63.875 143.726562 101.601562 143.929688 147.761719 143.929688 C 214.632812 143.929688 231.597656 143.777344 231.449219 143.277344 C 231.25 142.828125 214.03125 142.628906 147.863281 142.527344 C 102.050781 142.480469 64.375 142.578125 64.226562 142.777344 Z M 64.226562 142.777344 "/>
<path style=" stroke:none;fill-rule:nonzero;fill:rgb(0%,0%,0%);fill-opacity:1;" d="M 137.082031 183.257812 C 136.882812 183.410156 136.734375 184.859375 136.734375 186.457031 C 136.734375 188.804688 136.933594 189.457031 137.679688 189.90625 C 138.28125 190.207031 144.167969 190.40625 153.351562 190.40625 C 169.867188 190.40625 169.667969 190.453125 169.667969 186.707031 C 169.667969 182.707031 170.566406 182.910156 153 182.910156 C 144.417969 182.910156 137.234375 183.058594 137.082031 183.257812 Z M 137.082031 183.257812 "/>
</g>
</svg>
