<svg width="60" height="60" viewBox="0 0 60 60" fill="none" xmlns="http://www.w3.org/2000/svg">
<path fill-rule="evenodd" clip-rule="evenodd" d="M28.6287 4.10743C29.4775 3.63118 30.5225 3.63118 31.37 4.10743C35.5638 6.46118 48.1837 13.5462 52.3787 15.8999C53.2275 16.3749 53.75 17.2549 53.75 18.2074C53.75 22.9149 53.75 37.0837 53.75 41.7912C53.75 42.7437 53.2275 43.6237 52.3787 44.0999C48.185 46.4537 35.565 53.5387 31.37 55.8924C30.5213 56.3687 29.4762 56.3687 28.6287 55.8924C24.435 53.5387 11.815 46.4537 7.62 44.0999C6.7725 43.6237 6.25 42.7449 6.25 41.7924C6.25 37.0849 6.25 22.9162 6.25 18.2087C6.25 17.2562 6.7725 16.3762 7.62125 15.8999C11.8138 13.5462 24.4362 6.46118 28.6287 4.10743Z" fill="#C4C4C4"/>
<path fill-rule="evenodd" clip-rule="evenodd" d="M6.63 43.0051C6.2975 42.5601 6.25 42.1376 6.25 41.5689C6.25 36.8889 6.25 22.8014 6.25 18.1201C6.25 17.1726 6.77125 16.2976 7.6175 15.8251C11.7962 13.4851 24.3737 6.44136 28.5525 4.10011C29.3987 3.62636 30.545 3.63636 31.3913 4.11011C35.57 6.45011 48.105 13.4339 52.2837 15.7739C52.6212 15.9639 52.8787 16.1926 53.1087 16.4939L6.63 43.0051Z" fill="white"/>
<path fill-rule="evenodd" clip-rule="evenodd" d="M30 12.5C39.6588 12.5 47.5 20.3412 47.5 30C47.5 39.6588 39.6588 47.5 30 47.5C20.3412 47.5 12.5 39.6588 12.5 30C12.5 20.3412 20.3412 12.5 30 12.5ZM30 21.25C34.8287 21.25 38.75 25.17 38.75 30C38.75 34.8287 34.8287 38.75 30 38.75C25.1713 38.75 21.25 34.8287 21.25 30C21.25 25.17 25.17 21.25 30 21.25Z" fill="#0A0C0D"/>
<path fill-rule="evenodd" clip-rule="evenodd" d="M53.1063 16.5063C53.7513 17.1101 53.7388 18.0201 53.7388 18.7363C53.7388 23.4801 53.6988 36.9726 53.75 41.7163C53.755 42.2113 53.5913 42.7326 53.3463 43.1251L29.4913 30.0001L53.1063 16.5063Z" fill="#DCDCDC"/>
</svg>
