<svg width="59" height="56" viewBox="0 0 59 56" fill="none" xmlns="http://www.w3.org/2000/svg">
<path d="M57.4519 24.4572L33.2326 1.46943C32.2055 0.48981 30.8528 0 29.5 0C28.1473 0 26.7945 0.48981 25.7674 1.46943L20.9777 6.01562L26.9047 11.6413C28.8737 10.5428 31.4389 10.7806 33.1274 12.3832C34.8158 13.9857 35.0613 16.4205 33.904 18.2846L39.7308 23.8152C41.6998 22.7167 44.265 22.9545 45.9535 24.5571C47.9575 26.4592 47.9575 29.5408 45.9535 31.4429C43.9494 33.3451 40.7028 33.3451 38.6987 31.4429C37.0103 29.8404 36.7598 27.4056 37.9171 25.5367L32.0903 20.0061C31.6744 20.2391 31.2385 20.4103 30.7826 20.5197V35.4755C32.9921 36.0177 34.6304 37.9056 34.6304 40.1739C34.6304 42.8655 32.3358 45.0435 29.5 45.0435C26.6642 45.0435 24.3696 42.8655 24.3696 40.1739C24.3696 37.9056 26.0079 36.0177 28.2174 35.4755V20.5197C27.3606 20.3105 26.544 19.9062 25.8726 19.269C24.1842 17.6664 23.9387 15.2317 25.096 13.3675L19.164 7.73709L1.54815 24.4572C-0.51605 26.4117 -0.51605 29.5883 1.54815 31.5428L25.7674 54.5306C26.7945 55.5102 28.1473 56 29.5 56C30.8528 56 32.2055 55.5102 33.2326 54.5306L57.4519 31.5428C59.5161 29.5883 59.5161 26.4117 57.4519 24.4572Z" fill="white"/>
</svg>
