<svg width="63" height="63" viewBox="0 0 63 63" fill="none" xmlns="http://www.w3.org/2000/svg">
<g clip-path="url(#clip0_63_47)">
<path d="M27.99 0.222828C13.4814 1.8325 1.81139 13.7441 0.234364 28.2311C-1.65807 44.3278 8.11949 58.171 21.9973 62.6781V55.2736C21.9973 55.2736 20.7357 55.5955 19.1587 55.5955C14.743 55.5955 12.8506 51.7323 12.5352 49.4788C12.2198 48.191 11.589 47.2252 10.6427 46.2594C9.69652 45.9375 9.38111 45.9375 9.38111 45.6155C9.38111 44.9717 10.3273 44.9717 10.6427 44.9717C12.5352 44.9717 14.1122 47.2252 14.743 48.191C16.32 50.7665 18.2125 51.4104 19.1587 51.4104C20.4203 51.4104 21.3665 51.0884 21.9973 50.7665C22.3127 48.513 23.2589 46.2594 25.1514 44.9717C17.8971 43.362 12.5352 39.1769 12.5352 32.0943C12.5352 28.553 14.1122 25.0118 16.32 22.4363C16.0046 21.7924 15.6892 20.1827 15.6892 17.9292C15.6892 16.6415 15.6892 14.7099 16.6354 12.7783C16.6354 12.7783 21.0511 12.7783 25.4668 16.9634C27.0438 16.3195 29.2516 15.9976 31.4595 15.9976C33.6673 15.9976 35.8752 16.3195 37.7676 16.9634C41.8679 12.7783 46.5989 12.7783 46.5989 12.7783C47.2297 14.7099 47.2297 16.6415 47.2297 17.9292C47.2297 20.5047 46.9143 21.7924 46.5989 22.4363C48.8068 25.0118 50.3838 28.2311 50.3838 32.0943C50.3838 39.1769 45.0219 43.362 37.7676 44.9717C39.66 46.5814 40.9216 49.4788 40.9216 52.3762V63C53.8532 58.8149 63 46.5814 63 32.4162C63 13.1002 46.9143 -2.03071 27.99 0.222828Z" fill="white"/>
</g>
<defs>
<clipPath id="clip0_63_47">
<rect width="63" height="63" fill="white"/>
</clipPath>
</defs>
</svg>
