<svg width="60" height="60" viewBox="0 0 60 60" fill="none" xmlns="http://www.w3.org/2000/svg">
<path d="M54.3281 2.78897C54.1031 2.54053 53.7797 2.3999 53.4422 2.3999H6.55781C6.22031 2.3999 5.89688 2.54053 5.67188 2.78897C5.44219 3.0374 5.32969 3.37022 5.3625 3.70772L9.58594 51.0187C9.62813 51.5155 9.975 51.928 10.4531 52.0687L29.6672 57.553C29.7703 57.5858 29.8828 57.5999 29.9953 57.5999C30.1078 57.5999 30.2156 57.5858 30.3234 57.553L49.5516 52.0687C50.0297 51.928 50.3719 51.5155 50.4188 51.0187L54.6375 3.70772C54.6703 3.37022 54.5578 3.0374 54.3281 2.78897ZM44.2172 19.1015H21.6422L22.1813 25.2093H43.6734L42.0609 43.2608L29.9906 46.9077L29.8734 46.8702L17.9438 43.2562L17.2922 35.9015H23.1375L23.3906 38.7562L30.0609 40.153L36.6094 38.7562L37.3078 31.0312H16.8563L15.2672 13.2655H44.7375L44.2172 19.1015Z" fill="white"/>
</svg>
