<svg width="55" height="56" viewBox="0 0 55 56" fill="none" xmlns="http://www.w3.org/2000/svg">
<path d="M51.5113 0H3.49377C1.56529 0 0 1.59375 0 3.55729V52.4427C0 54.4063 1.56529 56 3.49377 56H51.5062C53.4347 56 55 54.4063 55 52.4479V3.55729C55 1.59375 53.4347 0 51.5113 0ZM30.119 42.9115C30.119 48.2396 27.0499 50.6667 22.5688 50.6667C18.5175 50.6667 15.5966 47.901 14.4048 45.3333L18.5226 42.7969C19.3155 44.2292 20.5227 45.3333 22.2619 45.3333C23.9244 45.3333 24.881 44.6719 24.881 42.099V25.3333H30.119V42.9115ZM41.4802 50.6667C36.8406 50.6667 34.2062 48.2865 32.7381 45.3333L36.6667 42.6667C37.7358 44.4479 38.9021 46.151 41.3677 46.151C43.4394 46.151 44.5238 45.099 44.5238 43.6406C44.5238 41.901 43.3984 41.2813 41.1221 40.2656L39.874 39.7188C36.2677 38.1563 33.8686 36.1979 33.8686 32.0521C33.8686 28.2396 36.7281 25.3333 41.1886 25.3333C44.3652 25.3333 46.6467 26.4583 48.2938 29.4063L44.4062 31.9531C43.5468 30.3854 42.626 29.7708 41.1886 29.7708C39.7256 29.7708 38.7998 30.7188 38.7998 31.9531C38.7998 33.4792 39.7256 34.0938 41.869 35.0417L43.1171 35.5885C47.3679 37.4375 49.7619 39.3281 49.7619 43.5781C49.7619 48.1563 46.2272 50.6667 41.4802 50.6667Z" fill="white"/>
</svg>
