<svg width="60" height="60" viewBox="0 0 60 60" fill="none" xmlns="http://www.w3.org/2000/svg">
<path d="M34.8726 0C39.0764 7.63719 19.801 12.3536 18.0096 18.7156C16.3674 24.5618 29.4626 31.3551 29.4745 31.3551C27.4861 28.936 26.0231 26.9435 24.0287 23.1788C20.6549 16.8121 44.576 11.0502 34.8726 0ZM47.6752 10.5767C47.6752 10.5767 30.7643 11.43 29.9045 19.9158C29.5223 23.6945 34.3531 25.6823 34.4904 28.4296C34.6039 30.6753 31.6242 32.5553 31.6242 32.5553C31.6242 32.5553 37.0462 31.7443 38.742 28.3171C40.623 24.5149 35.0756 21.9458 35.6369 18.9031C36.1744 15.9917 47.6752 10.5767 47.6752 10.5767ZM21.1146 30.1924C21.1146 30.1924 5.63694 30.019 5.63694 33.4555C5.63694 37.0467 25.8977 37.3139 40.3662 35.1057C40.3662 35.1057 44.2118 33.0288 45.2389 32.2553C35.7564 33.7743 14.1401 33.9431 14.1401 32.6303C14.1401 31.4208 21.1146 30.1924 21.1146 30.1924ZM50.8758 30.1924C49.3591 30.2862 47.7229 30.7457 46.242 31.5802C49.7293 30.9894 52.6911 32.6866 52.6911 34.6182C52.6911 38.9689 44.6656 43.057 44.6656 43.057C44.6656 43.057 57.086 41.9506 57.086 34.8057C57.086 31.5614 54.2138 29.9862 50.8758 30.1924ZM17.3885 36.8685C15.0119 36.8685 11.465 38.3313 11.465 39.719C11.465 42.5085 29.3312 44.6557 42.5637 40.5816L37.9777 38.3688C29.0088 40.6238 12.492 39.8878 17.3885 36.8685ZM19.586 43.1321C16.3316 43.1321 14.1879 44.6745 14.1879 45.8325C14.1879 49.4143 33.6246 49.7753 41.3217 46.1325L36.449 43.6946C30.6986 45.6028 16.2659 45.8934 19.586 43.1321ZM8.74204 46.3576C3.43949 46.2732 0 48.1438 0 49.6956C0 57.947 54.2675 57.5672 54.2675 49.133C54.2675 47.7312 52.2074 47.0514 51.449 46.7326C55.8857 54.7965 7.02229 54.1542 7.02229 49.3956C7.02229 48.3126 10.617 47.2765 13.949 47.7828L11.1306 46.5076C10.3006 46.4092 9.5004 46.3716 8.74204 46.3576ZM60 51.9085C51.7476 58.0501 30.836 60.277 9.79299 56.4842C30.83 63.2447 59.8985 59.4519 60 51.9085Z" fill="white"/>
</svg>
