<svg width="60" height="60" viewBox="0 0 60 60" fill="none" xmlns="http://www.w3.org/2000/svg">
<path d="M29.9854 0C29.0729 0 28.1605 0.206611 27.373 0.621995L2.59766 13.8236C0.997656 14.6775 0 16.2941 0 18.0018V41.9531C0 43.6839 0.997656 45.2775 2.59766 46.1313L9.10156 49.5928C12.2516 51.0236 13.3748 51.0216 14.7998 51.0216C19.4748 51.0216 22.1484 48.4143 22.1484 43.8912V19.1782C22.1484 18.809 21.8258 18.5066 21.4258 18.5066H18.3008C17.8758 18.5066 17.5732 18.809 17.5732 19.1782V43.8687C17.5732 45.8995 15.301 47.8835 11.626 46.1989L4.82422 42.5751C4.57422 42.4597 4.42383 42.207 4.42383 41.9531V18.0243C4.42383 17.7474 4.57422 17.5138 4.82422 17.3753L29.5996 4.17819C29.8246 4.03972 30.126 4.03972 30.376 4.17819L55.1514 17.3753C55.4014 17.5138 55.5518 17.748 55.5518 18.0018V41.9531C55.5518 42.207 55.4008 42.4597 55.1758 42.5751L30.376 55.7993C30.151 55.9147 29.8246 55.9147 29.5996 55.7993L23.2227 52.3152C23.0477 52.1998 22.802 52.1778 22.627 52.2701C20.852 53.1932 20.527 53.3079 18.877 53.8386C18.477 53.954 17.8516 54.1841 19.1016 54.8302L27.373 59.3555C28.173 59.7709 29.0756 60 29.9756 60C30.9006 60 31.7977 59.7709 32.5977 59.3555L57.4023 46.1313C59.0023 45.2775 60 43.6839 60 41.9531V18.0243C60 16.2936 59.0023 14.7 57.4023 13.8462L32.5977 0.621995C31.8102 0.206611 30.8979 0 29.9854 0ZM36.6504 18.4751C29.5754 18.4751 25.3516 21.2425 25.3516 25.8579C25.3516 30.8656 29.5477 32.248 36.3477 32.8711C44.4727 33.6096 45.0977 34.7205 45.0977 36.1974C45.0977 38.7359 42.8764 39.8212 37.6514 39.8212C31.0764 39.8212 29.6254 38.296 29.1504 35.296C29.1004 34.9729 28.8021 34.7416 28.4521 34.7416H25.2246C24.8246 34.7416 24.5264 35.0445 24.5264 35.3906C24.5264 39.2445 26.8014 43.8326 37.6514 43.8326C45.5014 43.8326 50 40.9747 50 35.9901C50 31.0516 46.3744 29.7337 38.7744 28.7876C31.0494 27.8645 30.2734 27.3797 30.2734 25.7181C30.2734 24.3335 30.9504 22.5135 36.6504 22.5135C41.7254 22.5135 43.6244 23.5257 44.3994 26.6872C44.4744 26.9872 44.7477 27.2191 45.0977 27.2191H48.3252C48.5252 27.2191 48.6977 27.1276 48.8477 26.9892C48.9727 26.8738 49.0484 26.6876 49.0234 26.4799C48.5234 21.0337 44.6004 18.4751 36.6504 18.4751Z" fill="white"/>
</svg>
