<svg width="60" height="60" viewBox="0 0 60 60" fill="none" xmlns="http://www.w3.org/2000/svg">
<path d="M42.1268 3C40.3268 3 38.7658 3.35625 37.3268 3.71719C39.8487 4.79531 41.4096 6.11719 42.2487 6.71719C44.1705 8.39531 45.2487 10.0781 47.1705 12.8391C47.5268 13.4391 48.1268 14.2781 48.4877 15.5953C48.8487 16.7953 48.8487 17.7563 48.8487 18.7172C48.8487 20.0391 48.7268 21.1172 48.6049 22.1953C48.4877 23.0391 48.4877 23.4 48.3705 23.6391C48.3705 23.7609 48.3705 23.8781 48.2487 24.1172C48.2487 24.7172 48.2487 24.9609 48.3705 25.4391C48.3705 25.9172 48.4877 26.4 48.4877 27.2391C48.6096 28.8 48.6096 29.8781 48.3705 31.1953V31.6781C48.1268 32.7563 47.8877 33.8391 47.2877 34.7953C47.4096 35.0391 47.5268 35.1563 47.6487 35.3953C48.2487 34.5563 48.7268 33.7172 49.2049 32.7609C50.6487 30.1172 51.4877 27.8391 52.0877 26.1609C53.1658 23.0391 53.7658 20.7563 54.1268 19.0781C54.9658 15.4781 55.0877 13.8 54.7268 11.8781C54.7268 11.2781 54.4877 10.1953 53.8877 9.11719C52.5658 6.71719 50.5268 5.63906 49.0877 4.91719C48.1268 4.43906 45.6049 3.11719 42.1268 3ZM16.1299 3.52969C14.7471 3.50156 13.0596 3.65625 11.1659 4.55625C10.5659 4.8 8.76585 5.63906 7.32679 7.55625C6.36585 8.75625 5.64866 10.5563 5.28772 12.5953C4.92679 14.3953 4.80491 16.5609 5.52679 20.6391C6.00491 23.5172 6.48772 25.4391 7.44866 29.3953C7.57054 29.8781 8.28772 32.0391 9.84866 36.8391L9.96585 37.0781C10.2096 37.9172 10.9268 39.7172 12.4877 41.5172C13.5658 42.7172 14.5268 43.4391 15.3705 43.4391H15.6049C17.1659 43.4391 18.2487 42.2391 19.2049 41.2781C19.2049 41.1563 21.4877 38.4 22.3268 37.4391C22.2049 37.3172 21.9705 37.3172 21.8487 37.1953C20.4096 36.3563 19.3268 35.0391 18.4877 33.5953C17.0487 30.9563 17.1659 28.3172 17.4049 26.9953L17.5268 24.9609C17.0487 21.7172 17.1705 18.6 17.7705 15.4781C18.2487 12.8391 18.8487 10.2 21.0049 7.43906C21.7268 6.47812 22.5658 5.63906 23.4049 5.03906C21.4877 4.2 19.4487 3.71719 17.4049 3.6C17.0159 3.56719 16.5893 3.53906 16.1299 3.52969ZM31.2049 4.55625C30.6049 4.55625 30.0049 4.55625 29.4049 4.67812C27.0049 5.15625 24.7268 6.47812 22.9268 8.75625C21.1268 11.0391 20.6487 13.1953 20.1705 15.7172C19.9268 16.6781 19.9268 17.5172 19.8049 18.4781C20.5268 17.8781 21.4877 17.1563 22.9268 16.7953C23.7658 16.5563 25.9268 15.8391 27.7268 16.9172C28.3268 17.2781 29.1658 18 30.0049 20.0391C31.8049 25.0781 30.0096 30.2391 29.7705 30.7172C29.6487 31.1953 29.4096 31.5563 29.2877 31.7953C29.0487 32.3953 28.8096 32.8781 28.5705 33.8391C28.4487 34.6781 28.3268 35.4 28.3268 36.2391C28.6877 36.2391 29.0487 36.3563 29.4049 36.5953C30.0049 37.1953 30.1268 38.0391 30.2487 38.3953C30.4877 40.3172 30.4877 42.7172 30.4877 45.1172C30.4877 47.0391 30.4877 48.8391 30.6049 50.0391C30.8487 52.8 31.6877 54.7172 32.8877 55.6781C33.7268 56.4 34.8049 56.3953 35.4049 56.5172H35.6487C37.4487 56.5172 40.3268 55.3172 41.4049 53.6391C42.0049 52.6781 42.2487 51.8391 42.4877 50.6391C42.6096 49.9172 42.6049 49.5609 42.7268 48.8391C42.7268 48.4781 42.8487 47.8781 42.8487 47.1609C42.8487 46.5609 42.9658 45.8391 43.0877 44.9953C43.2096 42.9563 43.5658 40.5609 43.6877 39.2391C43.8096 37.6781 44.5268 36.3563 45.1268 35.5172C44.2877 35.3953 43.4487 34.6781 42.9705 33.4781C42.2487 32.1563 42.1268 31.7953 42.0049 31.1953C41.8877 30.7172 41.6487 30.1172 40.8049 28.3172C39.0049 24.2391 38.7705 23.0391 38.7705 22.0781C38.6487 20.7563 38.5268 18.9609 39.9705 17.7609C42.1268 15.8391 44.8877 15.9609 46.3268 16.4391V16.1953C46.0877 15.2391 45.6096 14.5172 45.2487 14.0391C43.4487 11.2781 42.4877 9.83906 40.8049 8.4C40.0877 7.8 38.2877 6.35625 35.6487 5.4C34.4487 5.03906 33.0049 4.55625 31.2049 4.55625ZM44.4705 18.6281C43.5987 18.5672 42.4877 18.7172 41.5268 19.5609C41.0487 20.0391 41.0487 21 41.1705 21.8391C41.1705 22.4391 41.2877 23.2781 43.0877 27.3609C43.9268 29.2781 44.1658 29.8781 44.2877 30.3609C44.4096 30.8391 44.5268 31.0781 45.2487 32.3953C45.3705 32.6391 45.4877 32.8781 45.7268 33.1172C45.9658 32.7563 46.0877 32.1563 46.2049 31.1953L46.3268 30.8391C46.5658 29.7609 46.4487 28.9172 46.4487 27.4781C46.4487 26.7563 46.3268 26.2781 46.3268 25.9172C46.2049 25.3172 46.2049 24.8391 46.2049 24.1172C45.9658 23.7563 45.9658 23.6391 46.0877 23.3953C46.0877 23.1563 46.2049 22.8 46.3268 22.0781C46.4487 21.1172 46.5705 20.2781 46.5705 19.3172C46.3268 19.1953 46.2096 19.0781 45.9705 18.9609C45.9705 18.9609 45.3377 18.6891 44.4705 18.6281ZM25.7065 19.1016C24.9424 19.0125 24.0658 19.2609 23.5268 19.4391C22.2049 19.8 21.3705 20.6391 20.7705 21.1172C20.4096 21.4781 20.0487 21.8391 19.6877 22.3172C19.6877 23.1563 19.8049 24 19.9268 24.8391V24.9609L19.6877 27.3609C19.4487 28.4391 19.3268 30.4781 20.5268 32.5172C21.1268 33.7172 21.9705 34.6781 23.0487 35.2781C23.7705 35.7563 24.7268 36.1172 25.8049 36.3609C25.8049 35.5172 25.9268 34.5563 26.0487 33.7172C26.2877 32.5172 26.5268 31.9172 26.8877 31.1953C27.0096 30.8391 27.1268 30.6 27.3705 30.2391C27.4877 29.8781 29.1658 25.3172 27.6049 21.1172C27.2487 20.1563 26.8877 19.5563 26.4049 19.3172C26.1987 19.1953 25.9549 19.1297 25.7065 19.1016ZM43.3127 19.7859C43.6268 19.7672 43.9268 19.7953 44.0487 19.9172C44.4096 20.1563 43.9268 20.7563 43.8049 20.8781C43.6877 21 43.4487 21.2391 43.0877 21.3609C42.6096 21.4781 42.2487 21.1172 42.1268 21.1172C42.0049 20.9953 41.6487 20.6391 41.7705 20.2781C41.8877 20.0391 42.0096 20.0391 42.4877 19.9172C42.6658 19.8563 42.9987 19.8 43.3127 19.7859ZM25.2752 20.7797C25.6783 20.7516 26.0158 20.9063 26.2877 20.9953C26.6487 21.1172 27.0049 21.2391 27.0049 21.4781C27.1268 21.8391 26.7705 22.0781 26.6487 22.1953C26.2877 22.5563 25.6877 22.5609 25.6877 22.5609C25.0877 22.5609 24.7268 22.2 24.4877 21.8391C24.3658 21.7172 24.2487 21.4781 24.3705 21.2391C24.4877 21 24.7268 20.8781 24.8487 20.8781C24.9987 20.8172 25.1393 20.7891 25.2752 20.7797ZM47.2877 36.4781C46.6877 37.3172 45.8487 38.4 45.7268 39.8391C45.7268 40.0781 45.7268 40.2 45.6049 40.4391C46.5658 40.6781 47.4096 40.6781 48.2487 40.5609C50.1705 40.3172 51.4877 39.3563 51.7268 39.1172C52.5658 38.5172 53.6487 37.3172 53.4049 36.8391C53.2877 36.6 52.9268 36.7172 51.0049 36.8391C50.5268 36.8391 49.0877 37.2 48.1268 36.9609H47.8877C47.6487 36.8391 47.4096 36.7172 47.2877 36.4781ZM26.4049 38.8781C26.1658 39.2391 25.8096 39.4781 25.5705 39.7172C24.6096 40.3172 23.4049 40.8 22.2049 41.0391C21.1268 41.4 20.5268 41.4 20.5268 41.7609C20.4049 42.2391 21.6049 42.8391 22.2049 43.0781C24.2487 43.9172 26.2877 43.4391 26.6487 43.3172C26.8877 43.1953 27.4877 42.9563 28.0877 42.5953C28.0877 41.2781 27.9705 40.0781 27.8487 39.1172V38.9953H27.7268C27.3658 38.9953 26.8877 39 26.4049 38.8781Z" fill="white"/>
</svg>
