<svg width="60" height="60" viewBox="0 0 60 60" fill="none" xmlns="http://www.w3.org/2000/svg">
<path d="M16.0538 26.77C20.5313 28.3439 25.2549 29.1015 30 29.0069C34.7452 29.1009 39.4688 28.3426 43.9462 26.7682C47.4412 25.405 48.6806 23.89 48.6806 23.0182V16.3525C47.4587 17.1708 46.1478 17.8477 44.7731 18.37C40.0358 20.0664 35.0312 20.8934 30 20.8113C24.9693 20.8918 19.9651 20.0662 15.2269 18.3738C13.8515 17.8514 12.5405 17.1732 11.3194 16.3525V23.0088C11.3194 23.8975 12.5625 25.405 16.0538 26.77Z" fill="white"/>
<path d="M16.0538 37.1286C17.6355 37.7319 19.2666 38.1967 20.9288 38.518C23.9176 39.0962 26.9558 39.3807 30 39.3674C33.0441 39.3813 36.0824 39.0975 39.0712 38.5199C40.7334 38.1986 42.3645 37.7337 43.9462 37.1305C47.4412 35.7674 48.6806 34.2524 48.6806 33.3805V27.0243C47.6706 27.632 46.609 28.1497 45.5081 28.5711C40.5314 30.3332 35.2785 31.1861 30 31.0893C24.7209 31.1831 19.468 30.327 14.4919 28.5618C13.3915 28.1392 12.33 27.6216 11.3194 27.0149V33.3768C11.3194 34.2505 12.5625 35.7599 16.0538 37.1286Z" fill="white"/>
<path d="M30 49.9885C40.3125 49.9885 48.6806 46.7185 48.6806 42.6873V37.3679C47.7618 37.9218 46.7992 38.3996 45.8025 38.7967L45.5081 38.9148C40.5324 40.6821 35.2794 41.5401 30 41.4479C24.7204 41.5428 19.4669 40.6847 14.4919 38.9148C14.3906 38.8773 14.2931 38.8342 14.1975 38.7967C13.2008 38.3996 12.2382 37.9218 11.3194 37.3679V42.6873C11.3194 46.7185 19.6875 49.9885 30 49.9885Z" fill="white"/>
<path d="M30 18.3525C40.317 18.3525 48.6806 15.0836 48.6806 11.0513C48.6806 7.01888 40.317 3.75 30 3.75C19.683 3.75 11.3194 7.01888 11.3194 11.0513C11.3194 15.0836 19.683 18.3525 30 18.3525Z" fill="white"/>
</svg>
