<svg width="399" height="214" viewBox="0 0 399 214" fill="none" xmlns="http://www.w3.org/2000/svg">
<path d="M0 12C0 5.37258 5.37258 0 12 0H387C393.627 0 399 5.37258 399 12V214H0V12Z" fill="#0A0C0D"/>
<path d="M111.32 115.72H120.28V121H104.48V92.92H111.32V115.72ZM133.703 121.32C131.516 121.32 129.543 120.853 127.783 119.92C126.049 118.987 124.676 117.653 123.663 115.92C122.676 114.187 122.183 112.16 122.183 109.84C122.183 107.547 122.689 105.533 123.702 103.8C124.716 102.04 126.103 100.693 127.863 99.76C129.623 98.8267 131.596 98.36 133.783 98.36C135.969 98.36 137.943 98.8267 139.703 99.76C141.463 100.693 142.849 102.04 143.863 103.8C144.876 105.533 145.383 107.547 145.383 109.84C145.383 112.133 144.863 114.16 143.823 115.92C142.809 117.653 141.409 118.987 139.623 119.92C137.863 120.853 135.889 121.32 133.703 121.32ZM133.703 115.4C135.009 115.4 136.116 114.92 137.023 113.96C137.956 113 138.423 111.627 138.423 109.84C138.423 108.053 137.969 106.68 137.063 105.72C136.183 104.76 135.089 104.28 133.783 104.28C132.449 104.28 131.343 104.76 130.463 105.72C129.583 106.653 129.143 108.027 129.143 109.84C129.143 111.627 129.569 113 130.423 113.96C131.303 114.92 132.396 115.4 133.703 115.4ZM147.651 109.8C147.651 107.507 148.078 105.493 148.931 103.76C149.811 102.027 150.998 100.693 152.491 99.76C153.985 98.8267 155.651 98.36 157.491 98.36C159.065 98.36 160.438 98.68 161.611 99.32C162.811 99.96 163.731 100.8 164.371 101.84V98.68H171.211V121H164.371V117.84C163.705 118.88 162.771 119.72 161.571 120.36C160.398 121 159.025 121.32 157.451 121.32C155.638 121.32 153.985 120.853 152.491 119.92C150.998 118.96 149.811 117.613 148.931 115.88C148.078 114.12 147.651 112.093 147.651 109.8ZM164.371 109.84C164.371 108.133 163.891 106.787 162.931 105.8C161.998 104.813 160.851 104.32 159.491 104.32C158.131 104.32 156.971 104.813 156.011 105.8C155.078 106.76 154.611 108.093 154.611 109.8C154.611 111.507 155.078 112.867 156.011 113.88C156.971 114.867 158.131 115.36 159.491 115.36C160.851 115.36 161.998 114.867 162.931 113.88C163.891 112.893 164.371 111.547 164.371 109.84ZM174.8 109.8C174.8 107.507 175.226 105.493 176.08 103.76C176.96 102.027 178.146 100.693 179.64 99.76C181.133 98.8267 182.8 98.36 184.64 98.36C186.106 98.36 187.44 98.6667 188.64 99.28C189.866 99.8933 190.826 100.72 191.52 101.76V91.4H198.36V121H191.52V117.8C190.88 118.867 189.96 119.72 188.76 120.36C187.586 121 186.213 121.32 184.64 121.32C182.8 121.32 181.133 120.853 179.64 119.92C178.146 118.96 176.96 117.613 176.08 115.88C175.226 114.12 174.8 112.093 174.8 109.8ZM191.52 109.84C191.52 108.133 191.04 106.787 190.08 105.8C189.146 104.813 188 104.32 186.64 104.32C185.28 104.32 184.12 104.813 183.16 105.8C182.226 106.76 181.76 108.093 181.76 109.8C181.76 111.507 182.226 112.867 183.16 113.88C184.12 114.867 185.28 115.36 186.64 115.36C188 115.36 189.146 114.867 190.08 113.88C191.04 112.893 191.52 111.547 191.52 109.84ZM206.748 96.36C205.548 96.36 204.561 96.0133 203.788 95.32C203.041 94.6 202.668 93.72 202.668 92.68C202.668 91.6133 203.041 90.7333 203.788 90.04C204.561 89.32 205.548 88.96 206.748 88.96C207.921 88.96 208.881 89.32 209.628 90.04C210.401 90.7333 210.788 91.6133 210.788 92.68C210.788 93.72 210.401 94.6 209.628 95.32C208.881 96.0133 207.921 96.36 206.748 96.36ZM210.148 98.68V121H203.308V98.68H210.148ZM228.705 98.44C231.318 98.44 233.398 99.2933 234.945 101C236.518 102.68 237.305 105 237.305 107.96V121H230.505V108.88C230.505 107.387 230.118 106.227 229.345 105.4C228.572 104.573 227.532 104.16 226.225 104.16C224.918 104.16 223.878 104.573 223.105 105.4C222.332 106.227 221.945 107.387 221.945 108.88V121H215.105V98.68H221.945V101.64C222.638 100.653 223.572 99.88 224.745 99.32C225.918 98.7333 227.238 98.44 228.705 98.44ZM250.538 98.36C252.111 98.36 253.485 98.68 254.658 99.32C255.858 99.96 256.778 100.8 257.418 101.84V98.68H264.258V120.96C264.258 123.013 263.845 124.867 263.018 126.52C262.218 128.2 260.978 129.533 259.298 130.52C257.645 131.507 255.578 132 253.098 132C249.791 132 247.111 131.213 245.058 129.64C243.005 128.093 241.831 125.987 241.538 123.32H248.298C248.511 124.173 249.018 124.84 249.818 125.32C250.618 125.827 251.605 126.08 252.778 126.08C254.191 126.08 255.311 125.667 256.138 124.84C256.991 124.04 257.418 122.747 257.418 120.96V117.8C256.751 118.84 255.831 119.693 254.658 120.36C253.485 121 252.111 121.32 250.538 121.32C248.698 121.32 247.031 120.853 245.538 119.92C244.045 118.96 242.858 117.613 241.978 115.88C241.125 114.12 240.698 112.093 240.698 109.8C240.698 107.507 241.125 105.493 241.978 103.76C242.858 102.027 244.045 100.693 245.538 99.76C247.031 98.8267 248.698 98.36 250.538 98.36ZM257.418 109.84C257.418 108.133 256.938 106.787 255.978 105.8C255.045 104.813 253.898 104.32 252.538 104.32C251.178 104.32 250.018 104.813 249.058 105.8C248.125 106.76 247.658 108.093 247.658 109.8C247.658 111.507 248.125 112.867 249.058 113.88C250.018 114.867 251.178 115.36 252.538 115.36C253.898 115.36 255.045 114.867 255.978 113.88C256.938 112.893 257.418 111.547 257.418 109.84ZM272.407 121.32C271.207 121.32 270.22 120.973 269.447 120.28C268.7 119.56 268.327 118.68 268.327 117.64C268.327 116.573 268.7 115.68 269.447 114.96C270.22 114.24 271.207 113.88 272.407 113.88C273.58 113.88 274.54 114.24 275.287 114.96C276.06 115.68 276.447 116.573 276.447 117.64C276.447 118.68 276.06 119.56 275.287 120.28C274.54 120.973 273.58 121.32 272.407 121.32ZM283.696 121.32C282.496 121.32 281.509 120.973 280.736 120.28C279.989 119.56 279.616 118.68 279.616 117.64C279.616 116.573 279.989 115.68 280.736 114.96C281.509 114.24 282.496 113.88 283.696 113.88C284.869 113.88 285.829 114.24 286.576 114.96C287.349 115.68 287.736 116.573 287.736 117.64C287.736 118.68 287.349 119.56 286.576 120.28C285.829 120.973 284.869 121.32 283.696 121.32ZM294.985 121.32C293.785 121.32 292.798 120.973 292.025 120.28C291.278 119.56 290.905 118.68 290.905 117.64C290.905 116.573 291.278 115.68 292.025 114.96C292.798 114.24 293.785 113.88 294.985 113.88C296.158 113.88 297.118 114.24 297.865 114.96C298.638 115.68 299.025 116.573 299.025 117.64C299.025 118.68 298.638 119.56 297.865 120.28C297.118 120.973 296.158 121.32 294.985 121.32Z" fill="white"/>
</svg>
