<svg width="47" height="49" viewBox="0 0 47 49" fill="currentColor" xmlns="http://www.w3.org/2000/svg">
<path d="M42.3734 11.7523L24.6383 1.11013C24.3445 0.918726 23.9406 0.842163 23.5 0.842163C23.0594 0.842163 22.6555 0.957007 22.3617 1.11013L4.73672 11.7906C4.1125 12.1734 3.67188 13.1304 3.67188 13.8578V35.1804C3.67188 35.6015 3.74531 36.0992 4.03906 36.5203L43.2547 12.7859C43.0344 12.3265 42.7039 11.982 42.3734 11.7523Z" fill="white"/>
<path d="M3.92891 36.4821C4.1125 36.7883 4.36953 37.0563 4.62657 37.2094L22.325 47.8899C22.6188 48.0813 23.0227 48.1578 23.4633 48.1578C23.9039 48.1578 24.3078 48.043 24.6016 47.8899L42.2266 37.2094C42.8508 36.8266 43.2914 35.8696 43.2914 35.1422V13.8196C43.2914 13.475 43.2547 13.0922 43.0711 12.7477L3.92891 36.4821Z" fill="#CECECE"/>
<path d="M31.3211 29.132C29.7789 31.9648 26.8414 33.8789 23.5 33.8789C18.543 33.8789 14.5039 29.668 14.5039 24.5C14.5039 19.332 18.543 15.1211 23.5 15.1211C26.8414 15.1211 29.7789 17.0352 31.3211 19.9062L36.0945 17.0352C33.5977 12.4797 28.8977 9.37891 23.5 9.37891C15.4953 9.37891 8.99609 16.1547 8.99609 24.5C8.99609 32.8453 15.4953 39.6211 23.5 39.6211C28.8609 39.6211 33.5609 36.5586 36.0578 32.0414L31.3211 29.132Z" fill="#022840"/>
</svg>
