<svg width="44" height="40" viewBox="0 0 44 40" fill="currentColor" xmlns="http://www.w3.org/2000/svg">
<path d="M11.7727 19.07C15.0563 20.1192 18.5202 20.6243 22 20.5612C25.4798 20.6239 28.9438 20.1184 32.2272 19.0688C34.7902 18.16 35.6991 17.15 35.6991 16.5688V12.125C34.8031 12.6705 33.8417 13.1217 32.8336 13.47C29.3596 14.6009 25.6895 15.1522 22 15.0975C18.3108 15.1512 14.6411 14.6007 11.1664 13.4725C10.1578 13.1242 9.19634 12.6721 8.30087 12.125V16.5625C8.30087 17.155 9.2125 18.16 11.7727 19.07Z" fill="white"/>
<path d="M11.7727 27.4512C12.9327 27.8534 14.1289 28.1633 15.3477 28.3775C17.5396 28.763 19.7676 28.9526 22 28.9437C24.2324 28.953 26.4604 28.7638 28.6522 28.3787C29.8711 28.1645 31.0673 27.8546 32.2272 27.4525C34.7902 26.5437 35.6991 25.5337 35.6991 24.9525V20.715C34.9584 21.1202 34.1799 21.4653 33.3726 21.7462C29.7231 22.9209 25.8709 23.4896 22 23.425C18.1287 23.4876 14.2765 22.9168 10.6274 21.74C9.82042 21.4583 9.04198 21.1132 8.30087 20.7087V24.95C8.30087 25.5325 9.2125 26.5387 11.7727 27.4512Z" fill="white"/>
<path d="M22 37.5001C29.5625 37.5001 35.6991 35.3201 35.6991 32.6326V29.0863C35.0253 29.4556 34.3194 29.7741 33.5885 30.0388L33.3726 30.1176C29.7238 31.2957 25.8716 31.8678 22 31.8063C18.1283 31.8695 14.2757 31.2975 10.6274 30.1176C10.5531 30.0926 10.4816 30.0638 10.4115 30.0388C9.68058 29.7741 8.97469 29.4556 8.30087 29.0863V32.6326C8.30087 35.3201 14.4375 37.5001 22 37.5001Z" fill="white"/>
<path d="M22 12.235C29.5658 12.235 35.6991 10.0557 35.6991 7.3675C35.6991 4.67925 29.5658 2.5 22 2.5C14.4342 2.5 8.30087 4.67925 8.30087 7.3675C8.30087 10.0557 14.4342 12.235 22 12.235Z" fill="white"/>
</svg>
