<svg width="405" height="400" viewBox="0 0 405 400" fill="none" xmlns="http://www.w3.org/2000/svg">
<g clip-path="url(#clip0_7_17)">
<path d="M294.032 226.984V337.481L311.654 367.603L312.995 369.894H382.525L383.93 226.984H294.032Z" fill="#E6E6E6"/>
<path opacity="0.1" d="M294.032 226.984V337.481L311.654 367.603L312.735 226.984H294.032Z" fill="#5E690D"/>
<path d="M126.175 224.037V334.535L108.553 364.656L107.212 366.947H37.6818L36.2769 224.037H126.175Z" fill="#E6E6E6"/>
<path opacity="0.1" d="M126.175 224.037V334.535L108.553 364.656L107.472 224.037H126.175Z" fill="#5E690D"/>
<path d="M405 221.827V228.457H27.1466V218.88L62.263 199.727H374.098L405 221.827Z" fill="#E6E6E6"/>
<path opacity="0.1" d="M405 221.827V228.457H27.1466V218.88L405 221.827Z" fill="#5E690D"/>
<path d="M81.2263 254.976H64.37L57.3467 249.82H88.9517L81.2263 254.976Z" fill="#3F3D56"/>
<path d="M81.2263 276.339H64.37L57.3467 271.183H88.9517L81.2263 276.339Z" fill="#3F3D56"/>
<path d="M81.2263 306.542H64.37L57.3467 301.385H88.9517L81.2263 306.542Z" fill="#3F3D56"/>
<path d="M81.2263 336.745H64.37L57.3467 331.588H88.9517L81.2263 336.745Z" fill="#3F3D56"/>
<path d="M338.981 257.923H355.837L362.86 252.766H331.255L338.981 257.923Z" fill="#3F3D56"/>
<path d="M338.981 279.286H355.837L362.86 274.129H331.255L338.981 279.286Z" fill="#3F3D56"/>
<path d="M338.981 309.489H355.837L362.86 304.332H331.255L338.981 309.489Z" fill="#3F3D56"/>
<path d="M338.981 339.691H355.837L362.86 334.535H331.255L338.981 339.691Z" fill="#3F3D56"/>
<path d="M350.46 71.9482H208.556C207.851 71.9481 207.153 72.0937 206.502 72.3765C205.851 72.6594 205.259 73.074 204.761 73.5967C204.263 74.1194 203.867 74.74 203.598 75.4229C203.328 76.1059 203.189 76.8379 203.189 77.5771V177.838C203.189 178.577 203.328 179.309 203.598 179.992C203.867 180.675 204.263 181.296 204.761 181.819C205.259 182.341 205.851 182.756 206.502 183.039C207.153 183.322 207.851 183.467 208.556 183.467H262.424L260.406 196.982C260.406 196.982 248.872 203.408 256.982 203.597C265.091 203.786 303.295 203.597 303.295 203.597C303.295 203.597 310.684 203.597 298.97 196.793L297.072 183.467H350.46C351.164 183.467 351.862 183.322 352.513 183.039C353.165 182.756 353.756 182.341 354.255 181.819C354.753 181.296 355.148 180.675 355.418 179.992C355.688 179.309 355.826 178.577 355.826 177.838V77.5771C355.826 76.8379 355.688 76.1059 355.418 75.4229C355.148 74.74 354.753 74.1194 354.255 73.5967C353.756 73.074 353.165 72.6594 352.513 72.3765C351.862 72.0937 351.164 71.9481 350.46 71.9482Z" fill="#3F3D56"/>
<path d="M350.69 77.9022H208.325V161.447H350.69V77.9022Z" fill="#F2F2F2"/>
<path d="M279.508 76.2011C280.005 76.2011 280.409 75.778 280.409 75.256C280.409 74.7341 280.005 74.311 279.508 74.311C279.01 74.311 278.607 74.7341 278.607 75.256C278.607 75.778 279.01 76.2011 279.508 76.2011Z" fill="#F2F2F2"/>
<path d="M279.508 179.403C281.399 179.403 282.932 177.795 282.932 175.812C282.932 173.829 281.399 172.221 279.508 172.221C277.617 172.221 276.084 173.829 276.084 175.812C276.084 177.795 277.617 179.403 279.508 179.403Z" fill="#F2F2F2"/>
<path d="M274.172 213.804V215.694H177.22V214.182L177.353 213.804L179.743 207H272.19L274.172 213.804Z" fill="#3F3D56"/>
<path d="M311.483 211.953C311.306 212.745 310.639 213.581 309.133 214.371C303.726 217.206 292.734 213.615 292.734 213.615C292.734 213.615 284.264 212.103 284.264 208.133C284.502 207.963 284.75 207.808 285.006 207.67C287.279 206.409 294.816 203.297 308.178 207.802C309.163 208.126 310.042 208.731 310.718 209.548C311.018 209.857 311.243 210.236 311.376 210.654C311.509 211.072 311.546 211.518 311.483 211.953Z" fill="#3F3D56"/>
<path opacity="0.1" d="M311.483 211.953C304.865 214.613 298.967 214.811 292.914 210.402C290.625 208.627 287.853 207.669 285.006 207.67C287.279 206.409 294.816 203.297 308.178 207.802C309.163 208.126 310.042 208.731 310.718 209.548C311.018 209.857 311.243 210.236 311.376 210.654C311.509 211.072 311.546 211.518 311.483 211.953Z" fill="#5E690D"/>
<path d="M303.186 210.402C304.48 210.402 305.529 210.063 305.529 209.646C305.529 209.228 304.48 208.89 303.186 208.89C301.892 208.89 300.843 209.228 300.843 209.646C300.843 210.063 301.892 210.402 303.186 210.402Z" fill="#F2F2F2"/>
<path opacity="0.1" d="M274.172 213.804V215.694H177.22V214.182L177.353 213.804H274.172Z" fill="#5E690D"/>
<path d="M53.9068 0.000292195C52.9229 -0.0844428 51.9376 0.146416 51.0816 0.662277C50.241 1.26603 49.7112 2.32373 49.1705 3.30799C47.1029 7.11613 44.3039 10.4324 40.9506 13.0467C38.5082 14.9234 35.403 17.2634 35.8209 20.7236C36.0413 21.8663 36.4438 22.9618 37.0114 23.9642C39.2646 28.7348 45.4131 32.4215 44.8083 37.8652C47.0469 33.9344 44.0526 31.9908 46.2912 28.06C47.3573 26.1881 49.2092 24.0751 50.8188 25.2506C51.3577 25.6443 51.7116 26.3502 52.2728 26.6956C53.6117 27.5197 55.0362 25.9442 56.2214 24.8283C60.3084 20.9801 66.1205 21.9882 71.2063 23.1872C73.6074 23.7533 76.2446 24.4959 77.664 26.9028C79.5301 30.0674 75.8909 33.4853 74.9715 37.0632C74.8964 37.368 74.8929 37.6874 74.9611 37.994C75.0294 38.3007 75.1675 38.5854 75.3635 38.8238C75.5596 39.0623 75.8078 39.2474 76.0869 39.3633C76.366 39.4792 76.6677 39.5225 76.9663 39.4895C78.4923 39.3316 80.3001 39.2022 80.3904 38.4998C82.3104 38.5715 84.6629 38.3434 85.4856 36.2465C85.737 35.4168 85.8699 34.5527 85.88 33.6822C86.1819 30.1598 87.6072 26.9463 88.5514 23.5938C89.4957 20.2414 89.9062 16.3125 88.3128 13.3401C87.7441 12.3512 87.0408 11.4546 86.2251 10.6788C77.1825 1.50032 65.2934 -0.0133322 53.9068 0.000292195Z" fill="#413D2E"/>
<path d="M46.7749 44.7407C46.7749 44.7407 48.7415 61.93 41.5306 63.3052C34.3197 64.6803 48.086 88.0577 48.086 88.0577L80.8629 92.1831L72.9964 64.6803C72.9964 64.6803 67.7521 62.6176 71.0298 48.8661C74.3075 35.1147 46.7749 44.7407 46.7749 44.7407Z" fill="#FFB8B8"/>
<path d="M26.781 340.052L29.4034 377.869H43.1692L39.2365 340.052H26.781Z" fill="#FFB8B8"/>
<path d="M127.734 268.545L129.7 300.173L144.778 293.298L138.878 267.17L127.734 268.545Z" fill="#FFB8B8"/>
<path d="M16.948 195.663C16.948 195.663 17.6035 235.542 21.5368 248.606C25.47 261.669 24.8145 262.357 24.1589 264.42C23.5034 266.482 22.8479 265.107 22.8479 268.545C22.8479 271.983 21.5368 326.301 22.8479 331.114C24.1589 335.927 18.9146 344.178 22.8479 344.865C26.7811 345.553 45.1361 344.865 45.7917 340.74C46.4472 336.615 40.5474 335.24 43.1695 332.489C45.7917 329.739 49.7249 273.358 49.7249 273.358L58.9024 234.167L75.9464 213.539H112.001L123.145 258.919C123.145 258.919 118.556 271.983 121.834 271.983C125.112 271.983 144.778 276.108 144.778 260.982C144.778 245.855 138.222 201.163 136.911 199.788C135.6 198.413 137.567 193.6 135.6 191.537C133.634 189.474 110.69 175.035 102.168 172.285C93.6459 169.535 81.691 166.261 81.691 166.261L16.948 195.663Z" fill="#2F2E41"/>
<path d="M144.778 287.797C144.778 287.797 134.945 284.359 130.356 294.673C125.767 304.986 127.734 307.737 127.734 307.737C127.734 307.737 142.811 313.237 145.433 310.487C146.574 309.29 150.197 308.875 153.926 308.787C159.605 308.653 161.116 300.226 155.752 298.263C155.592 298.205 155.43 298.154 155.266 298.111C150.022 296.736 144.778 287.797 144.778 287.797Z" fill="#2F2E41"/>
<path d="M61.5245 56.0856C72.3858 56.0856 81.1906 46.8505 81.1906 35.4585C81.1906 24.0664 72.3858 14.8314 61.5245 14.8314C50.6632 14.8314 41.8584 24.0664 41.8584 35.4585C41.8584 46.8505 50.6632 56.0856 61.5245 56.0856Z" fill="#FFB8B8"/>
<path d="M35.9586 71.8998C35.9586 71.8998 68.0799 78.7755 75.9464 67.7744C83.8128 56.7732 87.0905 98.7151 87.0905 98.7151L91.0237 142.72L85.1239 166.785C85.1239 166.785 54.3136 192.912 44.4806 194.975C34.6475 197.038 19.5701 198.413 19.5701 198.413C19.5701 198.413 24.1589 122.092 24.1589 120.717C24.1589 119.342 35.9586 71.8998 35.9586 71.8998Z" fill="#022840"/>
<path d="M45.7274 59.0046C45.7274 59.0046 38.5807 54.7105 36.6141 58.8359C34.6475 62.9613 16.2925 73.2749 14.3258 73.2749C12.3592 73.2749 18.2591 130.343 15.6369 137.219C13.0148 144.095 0.559563 194.287 7.77047 198.413C14.9814 202.538 9.73708 194.287 16.948 204.601C24.1589 214.915 59.5579 214.915 61.5245 210.789C63.4911 206.664 45.7916 175.723 49.0693 146.845C52.347 117.967 57.5913 78.0879 53.0025 72.5873C48.4138 67.0867 45.7274 59.0046 45.7274 59.0046Z" fill="#2F2E41"/>
<path d="M69.391 63.6489L70.3041 60.353C70.3041 60.353 97.5791 69.8371 98.8902 76.0252C100.201 82.2133 99.5457 125.53 94.9569 128.968C90.3682 132.406 83.8128 137.907 88.4016 146.157C92.9903 154.408 98.2346 163.347 102.168 164.034C106.101 164.722 113.312 169.535 111.345 174.348C109.379 179.161 85.7794 170.222 85.7794 170.222C85.7794 170.222 70.0465 157.846 70.7021 138.594C71.3576 119.342 69.391 63.6489 69.391 63.6489Z" fill="#2F2E41"/>
<path d="M92.3347 144.782L76.6019 175.723C76.6019 175.723 53.6581 200.476 66.7688 203.226C79.8796 205.976 87.0905 180.536 87.0905 180.536L104.134 155.096L92.3347 144.782Z" fill="#FFB8B8"/>
<path d="M54.8649 5.39714C54.0722 5.33553 53.2782 5.49706 52.565 5.86503C51.9201 6.35903 51.3886 6.99791 51.0093 7.735C49.2608 10.4936 46.9816 12.8383 44.318 14.6183C42.3297 15.9447 39.802 17.5986 40.1422 20.0442C40.3268 20.8642 40.6555 21.6409 41.1113 22.3347C42.9518 25.7406 43.6845 29.6827 43.1985 33.5643L48.6655 25.2296C49.5333 23.9065 51.0409 22.413 52.3511 23.2439C52.7898 23.5221 53.0779 24.0211 53.5347 24.2652C54.6247 24.8477 55.7842 23.7342 56.749 22.9454C60.076 20.2255 64.8073 20.9381 68.9474 21.7855C70.902 22.1856 73.0488 22.7105 74.2042 24.4117C76.1243 27.2388 74.1193 31.3237 75.24 34.5896C75.5536 34.3593 75.82 34.0652 76.0234 33.7249C76.2267 33.3845 76.3628 33.0048 76.4236 32.6083C77.9866 32.659 79.9016 32.4978 80.5713 31.0157C80.775 30.4348 80.8835 29.8221 80.8924 29.2032C81.1381 26.7137 82.2984 24.4424 83.0671 22.0729C83.8357 19.7034 84.1699 16.9265 82.8728 14.8256C82.3982 14.1138 81.8255 13.4799 81.1733 12.9447C73.8122 6.45734 64.134 5.38751 54.8649 5.39714Z" fill="#413D2E"/>
<path d="M92.3347 73.2749L98.4425 74.9753C98.4425 74.9753 112.656 113.154 109.379 139.282C106.101 165.409 104.134 159.909 104.134 159.909C104.134 159.909 98.8901 147.533 87.0905 150.283L92.3347 73.2749Z" fill="#2F2E41"/>
<path d="M27.6892 372.871C26.1084 375.124 26.4254 378.345 25.0251 380.726C23.8113 382.79 21.5238 383.872 20.0056 385.701C19.5211 386.308 19.0893 386.96 18.7151 387.648C17.3067 390.122 16.162 393.293 17.549 395.781C18.6648 397.782 21.0102 398.564 23.1611 399.097C25.8798 399.771 28.7046 400.31 31.4546 399.795C34.2047 399.28 36.8924 397.514 37.873 394.771C38.0657 394.081 38.2948 393.403 38.5592 392.739C40.0498 389.661 44.7251 389.628 46.2506 386.569C47.3182 384.429 46.3368 381.841 45.3559 379.655L42.3599 372.979C41.3656 370.764 37.3351 372.038 35.2339 371.507C32.4934 370.814 29.6607 370.051 27.6892 372.871Z" fill="#2F2E41"/>
<path d="M5.80386 158.534L33.3364 203.226C33.3364 203.226 50.3804 225.916 55.6247 215.602C60.869 205.289 37.2696 188.099 37.2696 188.099L19.5701 153.721L5.80386 158.534Z" fill="#FFB8B8"/>
<path d="M19.5701 74.65L14.3258 73.2749C14.3258 73.2749 3.83724 76.7128 1.21509 91.1517C-1.40705 105.591 0.559551 163.347 3.83724 164.034C7.11492 164.722 20.0257 153.978 22.0923 156.256C24.1589 158.534 17.6035 146.845 19.5701 140.657C21.5367 134.469 19.5701 74.65 19.5701 74.65Z" fill="#2F2E41"/>
<path d="M266.033 105.341H249.09V109.619H266.033V105.341Z" fill="#022840"/>
<path d="M324.706 105.341H318.745V109.619H324.706V105.341Z" fill="#022840"/>
<path d="M336.629 105.341H330.668V109.619H336.629V105.341Z" fill="#022840"/>
<path d="M312.47 105.341H271.995V109.619H312.47V105.341Z" fill="#022840"/>
<path d="M244.697 132.985H227.754V137.263H244.697V132.985Z" fill="#022840"/>
<path d="M303.371 132.985H297.409V137.263H303.371V132.985Z" fill="#022840"/>
<path d="M315.293 132.985H309.332V137.263H315.293V132.985Z" fill="#022840"/>
<path d="M291.134 132.985H250.659V137.263H291.134V132.985Z" fill="#022840"/>
<path d="M314.666 114.885H297.723V119.163H314.666V114.885Z" fill="#022840"/>
<path d="M337.57 114.885H320.627V119.163H337.57V114.885Z" fill="#022840"/>
<path d="M233.716 114.885H227.754V119.163H233.716V114.885Z" fill="#022840"/>
<path d="M245.639 114.885H239.677V119.163H245.639V114.885Z" fill="#022840"/>
<path d="M292.075 114.885H251.6V119.163H292.075V114.885Z" fill="#022840"/>
<path d="M279.525 124.099H262.582V128.378H279.525V124.099Z" fill="#022840"/>
<path d="M256.62 124.099H239.677V128.378H256.62V124.099Z" fill="#022840"/>
<path d="M233.716 124.099H227.754V128.378H233.716V124.099Z" fill="#022840"/>
<path d="M337.57 124.099H331.609V128.378H337.57V124.099Z" fill="#022840"/>
<path d="M325.648 124.099H285.172V128.378H325.648V124.099Z" fill="#022840"/>
</g>
<defs>
<clipPath id="clip0_7_17">
<rect width="405" height="400" fill="white"/>
</clipPath>
</defs>
</svg>
