<svg width="86" height="82" viewBox="0 0 86 82" fill="none" xmlns="http://www.w3.org/2000/svg">
<path d="M43 7.6875C23.7051 7.6875 8.0625 22.6025 8.0625 41C8.0625 56.7299 19.5005 69.905 34.877 73.3977C34.0815 73.217 33.2928 73.0146 32.5188 72.784V65.1516C32.5188 65.1516 31.2086 65.568 29.4617 65.568C24.5745 65.568 22.5441 61.4103 22.0375 59.3219C21.7298 58.0496 20.9262 56.8439 20.0635 56.1072C19.0329 55.2308 18.5505 55.2283 18.5437 54.9285C18.5303 54.2994 19.4279 54.325 19.8539 54.325C22.0375 54.325 23.693 56.5403 24.4616 57.6857C26.3657 60.5134 28.4096 60.9875 29.4617 60.9875C30.7719 60.9875 31.9033 60.8004 32.6827 60.4417C33.0428 58.0227 34.1716 55.8676 36.0125 54.325C27.8197 52.7632 22.0375 48.2826 22.0375 41C22.0375 37.2485 23.6164 33.8007 26.2475 31.0165C25.9787 30.29 25.5312 28.8204 25.5312 26.4258C25.5312 24.8434 25.6468 22.9011 26.4047 21.0125C26.4047 21.0125 31.3873 21.0458 36.0864 25.2893C38.2552 24.6871 40.5759 24.3438 43 24.3438C45.4241 24.3438 47.7448 24.6871 49.9136 25.2893C54.6127 21.0458 59.5953 21.0125 59.5953 21.0125C60.3572 22.9011 60.4688 24.8434 60.4688 26.4258C60.4688 29.0075 60.1086 30.513 59.8883 31.1626C62.4387 33.9211 63.9625 37.3151 63.9625 41C63.9625 48.2826 58.1803 52.7632 49.9875 54.325C52.1751 56.1572 53.4813 58.826 53.4813 61.8203V72.784C52.7072 73.0159 51.9198 73.217 51.123 73.3977C66.4995 69.905 77.9375 56.7299 77.9375 41C77.9375 22.6025 62.2949 7.6875 43 7.6875ZM45.4362 74.2228C44.6313 74.2766 43.8197 74.3125 43 74.3125C43.8197 74.3125 44.63 74.2753 45.4362 74.2228ZM43 74.3125C42.1803 74.3125 41.3687 74.2766 40.5638 74.2228C41.37 74.2753 42.1803 74.3125 43 74.3125ZM40.0276 74.1844C38.3923 74.0524 36.7878 73.8141 35.2251 73.4746C36.7892 73.8128 38.3923 74.0524 40.0276 74.1844Z" fill="white"/>
</svg>
