<svg width="45" height="47" viewBox="0 0 45 47" fill="currentColor" xmlns="http://www.w3.org/2000/svg">
<path d="M17.259 36.602L19.1895 35.4176L17.0325 36.0443C15.3975 36.5221 14.622 37.1644 14.724 37.9509C14.9055 39.3343 18.096 40.4168 21.987 40.4168C23.9445 40.4168 26.8995 40.138 29.883 38.8016L30.54 38.5071L29.8725 38.2376C28.515 37.6861 27.5265 37.0438 27.516 37.0375L27.42 36.9733L27.309 36.9952C24.939 37.4668 23.418 37.647 21.885 37.647C20.883 37.647 19.8225 37.5733 18.336 37.3963C17.0385 37.2365 16.9215 36.9623 16.92 36.9592C16.9125 36.8997 17.0775 36.7164 17.259 36.602Z" fill="white"/>
<path d="M20.8245 44.8176C29.3595 44.8176 36.918 43.1225 37.332 41.1187C37.4085 40.749 37.2975 40.2163 36.336 39.7635L34.47 38.8846L36.0285 40.2743C36.0315 40.2743 36.258 40.4826 36.2115 40.7114C36.1815 40.8618 35.982 41.2534 34.7685 41.6357C32.2515 42.4316 26.6055 42.9877 21.0375 42.9877C15.8415 42.9877 11.838 42.5224 10.0515 41.7093C9.8295 41.6091 9.7815 41.5323 9.777 41.5323C9.831 41.2472 11.1645 40.6393 12.2835 40.3886C12.9795 40.232 13.449 40.2147 13.62 40.2147L14.742 40.2852L13.899 39.6664C13.614 39.4549 13.176 39.3484 12.5955 39.3484C10.467 39.3484 6.543 40.8148 6.432 42.2577C6.345 43.381 8.2425 43.7021 8.8665 43.8055C12.8265 44.4792 16.848 44.8176 20.8245 44.8176Z" fill="white"/>
<path d="M17.6865 30.4528L15.972 31.0466C14.1375 31.6827 13.3065 32.3783 13.4295 33.1679C13.6605 34.6703 17.463 35.344 21.1305 35.344C24.312 35.344 27.684 34.8489 30.6255 33.9512L31.494 33.6849L30.6405 33.37C29.6205 32.9971 28.9575 32.3015 28.95 32.2952L28.8405 32.1793L28.6875 32.2106C25.8 32.7919 23.5185 33.0519 21.285 33.0519C20.034 33.0519 18.738 32.972 17.082 32.7919C15.9105 32.6665 15.774 32.3673 15.7575 32.3078C15.708 32.1151 16.0035 31.7626 16.2375 31.5793L17.6865 30.4528C18.2835 30.4685 18.762 30.4716 19.032 30.4716C23.3115 30.4716 27.414 30.022 30.2865 29.2293L30.378 29.187C31.182 28.6151 32.316 28.1044 32.328 28.0981L34.662 27.0516L32.1615 27.5169C32.13 27.5263 28.8315 28.1373 25.5945 28.4224C24.8265 28.4898 24.0495 28.5415 23.2755 28.5854L24.468 27.943C24.5925 27.8788 27.522 26.273 28.0785 23.8807C28.308 22.8937 28.104 21.9239 27.4695 20.9902L27.177 20.564C26.247 19.2167 25.5135 18.1514 25.758 16.9591C26.091 15.3361 28.281 13.373 32.859 10.5985L34.644 9.51746L32.6415 10.0392C32.301 10.1285 24.291 12.2701 22.872 16.9654C22.2945 18.8767 22.899 20.9244 24.6675 23.0535C25.209 23.7068 25.4565 24.3961 25.401 25.1011C25.296 26.4359 24.159 27.4292 24.147 27.4386L22.782 28.6167C19.662 28.7812 16.701 28.764 15.1365 28.5431C13.8615 28.366 13.671 28.1577 13.662 28.1545C13.7865 27.7817 15.7605 27.0046 17.9835 26.4531L19.845 25.991L17.9355 25.85C17.9355 25.85 17.823 25.8406 17.6145 25.8406C16.632 25.8406 14.01 26.0082 10.902 27.578C10.632 27.7127 9.8145 28.1263 9.9555 28.7655C10.2465 30.0847 15.096 30.387 17.6865 30.4528Z" fill="white"/>
<path d="M32.76 26.4218L32.2755 27.2146L33.114 26.8652C33.117 26.8652 33.396 26.7524 34.005 26.6177C35.0325 26.3968 36.4935 27.0313 36.8175 28.4131C37.0185 29.27 36.954 31.5464 32.046 34.2082L31.95 34.2771L31.908 34.3727C31.9005 34.3915 31.869 34.4306 31.8435 34.4557L29.9685 35.5821L32.0895 35.0009C37.7535 33.4468 39.495 30.6409 39.2355 28.5321C39.012 26.7242 37.389 25.4082 35.3745 25.4082C34.7925 25.4082 34.2 25.5179 33.6105 25.7356C33.06 25.9362 32.772 26.4015 32.76 26.4218Z" fill="white"/>
<path d="M22.7205 26.2965L23.736 27.2537L23.1825 25.9471C22.8045 25.0541 22.218 24.1799 21.651 23.3371C19.683 20.4105 17.8245 17.6438 23.1 13.2947C26.646 10.3698 28.524 7.48867 28.68 4.7282C28.8195 2.25757 27.495 0.844433 27.438 0.783333L26.6865 0L26.949 1.07473C28.125 5.91887 25.0395 8.4412 21.7725 11.1139C20.187 12.4096 18.5505 13.7491 17.5275 15.3518C15.3015 18.8392 18.714 22.5177 22.7205 26.2965Z" fill="white"/>
<path d="M38.7195 42.2421C38.7135 42.2577 38.0055 43.616 32.421 44.7143C29.1945 45.3472 25.389 45.684 21.42 45.684C18.156 45.684 15.018 45.4553 12.582 45.0354L11.517 44.8521L12.3495 45.5712C12.4605 45.6668 13.578 46.5144 18.702 46.8559C20.136 46.9546 21.6435 47 23.184 47C26.883 47 38.964 46.6695 39.2775 42.3925L39.387 40.8446L38.7195 42.2421Z" fill="white"/>
</svg>
