<svg width="60" height="60" viewBox="0 0 60 60" fill="currentColor" xmlns="http://www.w3.org/2000/svg">
<path d="M52.8571 0H7.14286C3.2 0 0 3.2 0 7.14286V52.8571C0 56.8 3.2 60 7.14286 60H52.8571C56.8 60 60 56.8 60 52.8571V7.14286C60 3.2 56.8 0 52.8571 0ZM18.5714 22.8571V50H10V22.8571H18.5714ZM10 14.9571C10 12.9571 11.7143 11.4286 14.2857 11.4286C16.8571 11.4286 18.4714 12.9571 18.5714 14.9571C18.5714 16.9571 16.9714 18.5714 14.2857 18.5714C11.7143 18.5714 10 16.9571 10 14.9571ZM50 50H41.4286C41.4286 50 41.4286 36.7714 41.4286 35.7143C41.4286 32.8571 40 30 36.4286 29.9429H36.3143C32.8571 29.9429 31.4286 32.8857 31.4286 35.7143C31.4286 37.0143 31.4286 50 31.4286 50H22.8571V22.8571H31.4286V26.5143C31.4286 26.5143 34.1857 22.8571 39.7286 22.8571C45.4 22.8571 50 26.7571 50 34.6571V50Z" fill="white"/>
</svg>
